<svg xmlns="http://www.w3.org/2000/svg" version="1.1" xmlns:xlink="http://www.w3.org/1999/xlink" width="1500" height="1500" viewBox="0 0 1500 1500"><rect width="1500" height="1500" x="0" y="0" id="background" stroke="transparent" fill="#000000"></rect><svg xml:space="preserve" width="1000" height="1000" data-version="2" data-id="lg_4CTySILr5Sn91wuGDE" viewBox="0 0 560 297" x="250" y="250"><rect width="100%" height="100%" fill="transparent"></rect><path fill="#e4e4e4" d="M23.62 214.27v18.62q0 2.78-1.13 4.9-1.13 2.12-3.18 3.3-2.05 1.18-4.83 1.18-2.84 0-4.87-1.19-2.03-1.19-3.11-3.31t-1.08-4.88v-18.62h3.44v18.74q0 3.14 1.47 4.7t4.15 1.56q2.7 0 4.17-1.56 1.47-1.56 1.47-4.7v-18.74Z"></path><rect width="18.2" height="28" x="-9.1" y="-14" fill="none" rx="0" ry="0" transform="translate(15.02 228.77)"></rect><path fill="#e4e4e4" d="m42.32 241.81-9.7-24.22q.02.46.09 1.53.07 1.07.16 2.54t.15 3.11q.06 1.64.06 3.24v13.8h-3.22v-27.54h4.7l9.86 24.32q-.02-.58-.14-2.13-.12-1.55-.22-3.75t-.1-4.66v-13.78h3.22v27.54Z"></path><rect width="17.32" height="27.54" x="-8.66" y="-13.77" fill="none" rx="0" ry="0" transform="translate(39.02 228.54)"></rect><path fill="#e4e4e4" d="M68.92 227.91q0-3.6-.76-5.76-.76-2.16-2-3.24t-2.71-1.44q-1.47-.36-2.89-.36h-3.24v21.92h3.28q1.48 0 2.95-.47 1.47-.47 2.69-1.68t1.95-3.38q.73-2.17.73-5.59m3.7 0q0 3.44-.73 5.87t-1.99 4.01q-1.26 1.58-2.87 2.45-1.61.87-3.38 1.22-1.77.35-3.47.35h-6.32v-27.54h5.88q2.42 0 4.71.54t4.14 1.99q1.85 1.45 2.94 4.13 1.09 2.68 1.09 6.98"></path><rect width="18.76" height="27.54" x="-9.38" y="-13.77" fill="none" rx="0" ry="0" transform="translate(63.74 228.54)"></rect><path fill="#e4e4e4" d="M83.02 217.11v9.28h10.2v2.86h-10.2v9.78h12.52v2.78h-16v-27.54h15.64l-.4 2.84Z"></path><rect width="16" height="27.54" x="-8" y="-13.77" fill="none" rx="0" ry="0" transform="translate(88.04 228.54)"></rect><path fill="#e4e4e4" d="M120.02 221.99q0 2.06-.89 3.6t-2.41 2.54q-1.52 1-3.42 1.46l8.16 12.22h-4.16l-7.52-11.82h-3.72v11.82h-3.48v-27.54h7.08q5.1 0 7.73 1.95 2.63 1.95 2.63 5.77m-3.72 0q0-2.66-1.52-3.81t-4.72-1.15h-4v10.24h4q2.96 0 4.6-1.21 1.64-1.21 1.64-4.07"></path><rect width="18.88" height="27.54" x="-9.44" y="-13.77" fill="none" rx="0" ry="0" transform="translate(112.52 228.54)"></rect><path fill="#e4e4e4" d="M143.98 234.19q0 2.36-1.18 4.19-1.18 1.83-3.42 2.86-2.24 1.03-5.46 1.03-3.02 0-5.47-.92-2.45-.92-4.19-2.6l2.06-2.32q1.44 1.34 3.3 2.13 1.86.79 4.36.79 1.68 0 3.14-.55 1.46-.55 2.36-1.68.9-1.13.9-2.87 0-1.34-.52-2.28-.52-.94-1.84-1.67t-3.68-1.43q-2.72-.8-4.71-1.81-1.99-1.01-3.08-2.49-1.09-1.48-1.09-3.66 0-2.06 1.14-3.66t3.15-2.51q2.01-.91 4.63-.91 2.86 0 4.97.81t3.83 2.33l-2.04 2.26q-1.48-1.32-3.18-1.91-1.7-.59-3.46-.59-1.5 0-2.75.45t-2 1.34q-.75.89-.75 2.27 0 1.18.64 2.04.64.86 2.16 1.57 1.52.71 4.14 1.49 2.14.62 3.97 1.55t2.95 2.52q1.12 1.59 1.12 4.23"></path><rect width="19.72" height="28.44" x="-9.86" y="-14.22" fill="none" rx="0" ry="0" transform="translate(134.62 228.55)"></rect><path fill="#e4e4e4" d="M160.18 217.25v24.56h-3.46v-24.56h-8.6v-2.98h20.78l-.36 2.98Z"></path><rect width="20.78" height="27.54" x="-10.39" y="-13.77" fill="none" rx="0" ry="0" transform="translate(159.01 228.54)"></rect><path fill="#e4e4e4" d="M187.86 234.79h-10.9l-2.2 7.02h-3.42l8.96-27.54h4.44l8.96 27.54h-3.64Zm-10-2.88h9.1l-4.52-14.72Z"></path><rect width="22.36" height="27.54" x="-11.18" y="-13.77" fill="none" rx="0" ry="0" transform="translate(183.02 228.54)"></rect><path fill="#e4e4e4" d="m210.32 241.81-9.7-24.22q.02.46.09 1.53.07 1.07.16 2.54t.15 3.11q.06 1.64.06 3.24v13.8h-3.22v-27.54h4.7l9.86 24.32q-.02-.58-.14-2.13-.12-1.55-.22-3.75t-.1-4.66v-13.78h3.22v27.54Z"></path><rect width="17.32" height="27.54" x="-8.66" y="-13.77" fill="none" rx="0" ry="0" transform="translate(207.02 228.54)"></rect><path fill="#e4e4e4" d="M236.92 227.91q0-3.6-.76-5.76-.76-2.16-2-3.24t-2.71-1.44q-1.47-.36-2.89-.36h-3.24v21.92h3.28q1.48 0 2.95-.47 1.47-.47 2.69-1.68t1.95-3.38q.73-2.17.73-5.59m3.7 0q0 3.44-.73 5.87t-1.99 4.01q-1.26 1.58-2.87 2.45-1.61.87-3.38 1.22-1.77.35-3.47.35h-6.32v-27.54h5.88q2.42 0 4.71.54t4.14 1.99q1.85 1.45 2.94 4.13 1.09 2.68 1.09 6.98"></path><rect width="18.76" height="27.54" x="-9.38" y="-13.77" fill="none" rx="0" ry="0" transform="translate(231.74 228.54)"></rect><path fill="#e4e4e4" d="M262.4 214.27v2.78h-6.12v21.98h6.12v2.78h-15.76v-2.78h6.12v-21.98h-6.12v-2.78Z"></path><rect width="15.76" height="27.54" x="-7.88" y="-13.77" fill="none" rx="0" ry="0" transform="translate(255.02 228.54)"></rect><path fill="#e4e4e4" d="m282.32 241.81-9.7-24.22q.02.46.09 1.53.07 1.07.16 2.54t.15 3.11q.06 1.64.06 3.24v13.8h-3.22v-27.54h4.7l9.86 24.32q-.02-.58-.14-2.13-.12-1.55-.22-3.75t-.1-4.66v-13.78h3.22v27.54Z"></path><rect width="17.32" height="27.54" x="-8.66" y="-13.77" fill="none" rx="0" ry="0" transform="translate(279.02 228.54)"></rect><path fill="#e4e4e4" d="M303.06 242.27q-3.26 0-5.67-1.58t-3.73-4.74q-1.32-3.16-1.32-7.92 0-3.56.95-6.22.95-2.66 2.58-4.44 1.63-1.78 3.7-2.66 2.07-.88 4.29-.88 2.7 0 4.48.77 1.78.77 3.4 2.25l-2.1 2.18q-1.26-1.18-2.65-1.74t-3.11-.56q-1.5 0-2.9.58t-2.51 1.89q-1.11 1.31-1.76 3.47-.65 2.16-.65 5.36 0 3.98.83 6.48.83 2.5 2.46 3.67t4.03 1.17q1.44 0 2.73-.34t2.51-.98v-8.4h-5.42l-.42-2.88h9.28v13.12q-1.86 1-3.96 1.7-2.1.7-5.04.7"></path><rect width="19.72" height="28.44" x="-9.86" y="-14.22" fill="none" rx="0" ry="0" transform="translate(302.7 228.55)"></rect><path fill="#e4e4e4" d="M356.92 227.91q0-3.6-.76-5.76-.76-2.16-2-3.24t-2.71-1.44q-1.47-.36-2.89-.36h-3.24v21.92h3.28q1.48 0 2.95-.47 1.47-.47 2.69-1.68t1.95-3.38q.73-2.17.73-5.59m3.7 0q0 3.44-.73 5.87t-1.99 4.01q-1.26 1.58-2.87 2.45-1.61.87-3.38 1.22-1.77.35-3.47.35h-6.32v-27.54h5.88q2.42 0 4.71.54t4.14 1.99q1.85 1.45 2.94 4.13 1.09 2.68 1.09 6.98"></path><rect width="18.76" height="27.54" x="-9.38" y="-13.77" fill="none" rx="0" ry="0" transform="translate(351.74 228.54)"></rect><path fill="#e4e4e4" d="M382.4 214.27v2.78h-6.12v21.98h6.12v2.78h-15.76v-2.78h6.12v-21.98h-6.12v-2.78Z"></path><rect width="15.76" height="27.54" x="-7.88" y="-13.77" fill="none" rx="0" ry="0" transform="translate(375.02 228.54)"></rect><path fill="#e4e4e4" d="M407.98 234.19q0 2.36-1.18 4.19-1.18 1.83-3.42 2.86-2.24 1.03-5.46 1.03-3.02 0-5.47-.92-2.45-.92-4.19-2.6l2.06-2.32q1.44 1.34 3.3 2.13 1.86.79 4.36.79 1.68 0 3.14-.55 1.46-.55 2.36-1.68.9-1.13.9-2.87 0-1.34-.52-2.28-.52-.94-1.84-1.67t-3.68-1.43q-2.72-.8-4.71-1.81-1.99-1.01-3.08-2.49-1.09-1.48-1.09-3.66 0-2.06 1.14-3.66t3.15-2.51q2.01-.91 4.63-.91 2.86 0 4.97.81t3.83 2.33l-2.04 2.26q-1.48-1.32-3.18-1.91-1.7-.59-3.46-.59-1.5 0-2.75.45t-2 1.34q-.75.89-.75 2.27 0 1.18.64 2.04.64.86 2.16 1.57 1.52.71 4.14 1.49 2.14.62 3.97 1.55t2.95 2.52q1.12 1.59 1.12 4.23"></path><rect width="19.72" height="28.44" x="-9.86" y="-14.22" fill="none" rx="0" ry="0" transform="translate(398.62 228.55)"></rect><path fill="#e4e4e4" d="M429.08 222.77q0-2.14-.84-3.39t-2.3-1.8q-1.46-.55-3.34-.55h-3.98v11.76h3.84q1.94 0 3.42-.53t2.34-1.84q.86-1.31.86-3.65m3.72-.04q0 3.22-1.37 5.16t-3.77 2.82q-2.4.88-5.52.88h-3.52v10.22h-3.48v-27.54h7.04q4.92 0 7.77 2.07 2.85 2.07 2.85 6.39"></path><rect width="17.66" height="27.54" x="-8.83" y="-13.77" fill="none" rx="0" ry="0" transform="translate(424.47 228.54)"></rect><path fill="#e4e4e4" d="M451.86 234.79h-10.9l-2.2 7.02h-3.42l8.96-27.54h4.44l8.96 27.54h-3.64Zm-10-2.88h9.1l-4.52-14.72Z"></path><rect width="22.36" height="27.54" x="-11.18" y="-13.77" fill="none" rx="0" ry="0" transform="translate(447.02 228.54)"></rect><path fill="#e4e4e4" d="M480.02 221.99q0 2.06-.89 3.6t-2.41 2.54q-1.52 1-3.42 1.46l8.16 12.22h-4.16l-7.52-11.82h-3.72v11.82h-3.48v-27.54h7.08q5.1 0 7.73 1.95 2.63 1.95 2.63 5.77m-3.72 0q0-2.66-1.52-3.81t-4.72-1.15h-4v10.24h4q2.96 0 4.6-1.21 1.64-1.21 1.64-4.07"></path><rect width="18.88" height="27.54" x="-9.44" y="-13.77" fill="none" rx="0" ry="0" transform="translate(472.52 228.54)"></rect><path fill="#e4e4e4" d="M502.4 214.27v2.78h-6.12v21.98h6.12v2.78h-15.76v-2.78h6.12v-21.98h-6.12v-2.78Z"></path><rect width="15.76" height="27.54" x="-7.88" y="-13.77" fill="none" rx="0" ry="0" transform="translate(495.02 228.54)"></rect><path fill="#e4e4e4" d="M520.18 217.25v24.56h-3.46v-24.56h-8.6v-2.98h20.78l-.36 2.98Z"></path><rect width="20.78" height="27.54" x="-10.39" y="-13.77" fill="none" rx="0" ry="0" transform="translate(519.01 228.54)"></rect><path fill="#e4e4e4" d="M544.28 231.19v10.62h-3.52v-10.58l-9.3-16.96h3.84l7.3 13.8 7.38-13.8h3.6Z"></path><rect width="22.12" height="27.54" x="-11.06" y="-13.77" fill="none" rx="0" ry="0" transform="translate(543.02 228.54)"></rect><path fill="#e4e4e4" d="M187.48 290.67q-.89 0-1.66-.34-.78-.34-1.37-.95-.58-.61-.91-1.41-.33-.79-.33-1.71 0-.9.32-1.7.32-.79.91-1.4.59-.6 1.37-.95.77-.35 1.67-.35.8 0 1.45.23.64.24 1.25.74.1.08.12.18.01.11-.03.2-.05.09-.13.14-.03.09-.11.13-.09.04-.21.03-.11-.01-.22-.1-.43-.37-.94-.55-.5-.18-1.18-.18-.71 0-1.33.28-.62.29-1.1.78-.47.5-.74 1.15-.27.65-.27 1.37 0 .75.27 1.4.27.65.74 1.14.48.5 1.1.78.62.28 1.33.28.61 0 1.15-.2.54-.2 1.02-.57.13-.11.28-.09.15.02.26.13.11.11.11.29 0 .09-.02.16t-.1.15q-.56.52-1.25.73-.7.21-1.45.21m2.82-1.25-.84-.18v-2.21h-1.71q-.19 0-.31-.11t-.12-.27q0-.17.12-.27.12-.11.31-.11h2.12q.19 0 .31.12t.12.3Z"></path><rect width="7.1" height="8.81" x="-3.55" y="-4.41" fill="none" rx="0" ry="0" transform="translate(187.26 286.77)"></rect><path fill="#e4e4e4" d="M192.18 286.86q.03-.68.36-1.22.32-.54.85-.85.52-.31 1.16-.31.5 0 .78.14.27.15.21.42-.05.17-.15.22-.11.06-.25.05-.15-.01-.34-.03-.62-.05-1.09.13-.48.18-.76.56-.28.37-.28.89Zm.07 3.7q-.2 0-.31-.11-.11-.11-.11-.3v-5.18q0-.2.11-.31.11-.11.31-.11t.31.11q.11.11.11.31v5.18q0 .19-.11.3-.11.11-.31.11"></path><rect width="3.74" height="6.08" x="-1.87" y="-3.04" fill="none" rx="0" ry="0" transform="translate(194.2 288.02)"></rect><path fill="#e4e4e4" d="M199.03 290.62q-.88 0-1.57-.4-.69-.39-1.09-1.09-.39-.69-.39-1.57 0-.89.39-1.58.4-.7 1.09-1.09.69-.4 1.57-.4.88 0 1.57.4.69.39 1.09 1.09.39.69.4 1.58 0 .88-.4 1.57-.4.7-1.09 1.09-.69.4-1.57.4m0-.77q.64 0 1.15-.3.5-.29.79-.81.29-.52.29-1.18 0-.66-.29-1.18-.29-.52-.79-.82-.51-.3-1.15-.3-.63 0-1.14.3-.51.3-.8.82-.29.52-.29 1.18 0 .66.29 1.18.29.52.8.81.51.3 1.14.3"></path><rect width="6.11" height="6.13" x="-3.06" y="-3.06" fill="none" rx="0" ry="0" transform="translate(199.53 288.06)"></rect><path fill="#e4e4e4" d="M206.23 290.63q-.78 0-1.4-.32-.61-.33-.97-.96-.36-.62-.36-1.52v-2.86q0-.18.12-.3t.3-.12q.19 0 .31.12t.12.3v2.86q0 .68.26 1.12.25.44.7.66.45.22 1.01.22.54 0 .97-.21.43-.21.69-.57.25-.37.25-.83h.61q-.04.69-.38 1.24-.35.54-.93.86-.59.31-1.3.31m2.42-.07q-.19 0-.3-.11-.12-.12-.12-.31v-5.17q0-.19.12-.31.11-.11.3-.11t.31.11q.12.12.12.31v5.17q0 .19-.12.31-.12.11-.31.11"></path><rect width="5.58" height="6.08" x="-2.79" y="-3.04" fill="none" rx="0" ry="0" transform="translate(206.79 288.09)"></rect><path fill="#e4e4e4" d="M211.35 293.14q-.19 0-.31-.12-.11-.11-.11-.31v-5.19q.01-.86.41-1.55.4-.69 1.09-1.08.68-.4 1.54-.4.88 0 1.58.4.69.41 1.09 1.1.4.69.4 1.57 0 .87-.39 1.56-.39.7-1.06 1.1-.67.4-1.52.4-.74 0-1.33-.31-.6-.32-.97-.83v3.23q0 .2-.11.31-.12.12-.31.12m2.62-3.29q.64 0 1.15-.3.5-.29.79-.82.3-.52.3-1.17 0-.66-.3-1.18-.29-.51-.79-.81-.51-.31-1.15-.31-.62 0-1.13.31-.51.3-.79.81-.29.52-.29 1.18 0 .65.29 1.17.28.53.79.82.51.3 1.13.3"></path><rect width="6.11" height="8.65" x="-3.06" y="-4.33" fill="none" rx="0" ry="0" transform="translate(214.49 289.32)"></rect><path fill="#e4e4e4" d="M223.3 290.56q-.18 0-.3-.12-.13-.12-.13-.3v-7.15l-1.1.38q-.12.06-.22.06-.19 0-.31-.13-.12-.12-.12-.29 0-.13.06-.24.06-.11.22-.17l1.69-.58.12-.04q.06-.02.1-.02.19 0 .3.13.12.13.12.3v7.75q0 .18-.12.3t-.31.12"></path><rect width="2.61" height="8.6" x="-1.3" y="-4.3" fill="none" rx="0" ry="0" transform="translate(222.93 286.76)"></rect><path fill="#e4e4e4" d="M229.93 293.14q-.17 0-.3-.12-.13-.12-.13-.31v-10.32q0-.17.13-.3.13-.13.3-.13.19 0 .31.13t.12.3v10.32q0 .19-.12.31t-.31.12"></path><rect width=".86" height="11.18" x="-.43" y="-5.59" fill="none" rx="0" ry="0" transform="translate(230.43 288.05)"></rect><path fill="#e4e4e4" d="M238.79 290.67q-.71 0-1.3-.2-.6-.2-1.04-.58-.44-.37-.68-.87-.08-.17 0-.32t.28-.2q.15-.05.3.03t.23.23q.16.32.48.57.32.26.76.39.44.14.97.14.58 0 1.03-.19.45-.19.71-.56.26-.37.26-.9 0-.67-.49-1.15-.5-.49-1.56-.62-1.28-.15-2.01-.8-.72-.64-.72-1.58 0-.67.35-1.16.36-.5.99-.77.62-.27 1.44-.27.6 0 1.1.2.49.19.86.5.37.32.6.69.11.18.07.34-.04.17-.19.25-.16.08-.33.03-.18-.06-.26-.21-.17-.26-.42-.48-.24-.23-.6-.36-.35-.13-.84-.14-.87 0-1.4.37-.53.36-.53 1.07 0 .37.2.69.2.31.66.54.45.22 1.22.33 1.38.2 2.04.84.67.65.67 1.68 0 .59-.22 1.06-.21.46-.6.77t-.91.48q-.53.16-1.12.16"></path><rect width="5.93" height="8.81" x="-2.96" y="-4.41" fill="none" rx="0" ry="0" transform="translate(239.18 286.77)"></rect><path fill="#e4e4e4" d="M243.73 290.56q-.19 0-.31-.12t-.12-.3v-7.74q0-.18.12-.31.12-.12.31-.12h5.16q.17 0 .3.12.13.11.13.3 0 .17-.13.29-.13.12-.3.12h-4.73v3.03h3.44q.19 0 .31.13.12.12.12.29 0 .18-.12.3t-.31.12h-3.44v3.07h4.73q.17 0 .3.12.13.12.13.29 0 .18-.13.3-.13.11-.3.11Z"></path><rect width="6.02" height="8.59" x="-3.01" y="-4.29" fill="none" rx="0" ry="0" transform="translate(246.81 286.77)"></rect><path fill="#e4e4e4" d="M251.21 290.56q-.19 0-.31-.12t-.12-.3v-7.74q0-.18.12-.31.12-.12.31-.12.18 0 .31.12.12.13.12.31v7.74q0 .18-.12.3-.13.12-.31.12"></path><rect width=".86" height="8.59" x="-.43" y="-4.29" fill="none" rx="0" ry="0" transform="translate(251.71 286.77)"></rect><path fill="#e4e4e4" d="M256.34 290.67q-.7 0-1.3-.2-.6-.2-1.04-.58-.44-.37-.67-.87-.09-.17 0-.32.08-.15.28-.2.15-.05.3.03t.22.23q.17.32.49.57.32.26.76.39.44.14.96.14.59 0 1.04-.19.45-.19.71-.56.26-.37.26-.9 0-.67-.5-1.15-.49-.49-1.55-.62-1.29-.15-2.01-.8-.73-.64-.73-1.58 0-.67.36-1.16.36-.5.98-.77.63-.27 1.44-.27.61 0 1.1.2.5.19.87.5.37.32.6.69.11.18.07.34-.04.17-.19.25-.17.08-.34.03-.17-.06-.26-.21-.16-.26-.41-.48-.25-.23-.6-.36-.35-.13-.85-.14-.87 0-1.39.37-.53.36-.53 1.07 0 .37.2.69.19.31.65.54.46.22 1.23.33 1.37.2 2.04.84.66.65.66 1.68 0 .59-.21 1.06-.22.46-.61.77t-.91.48q-.52.16-1.12.16"></path><rect width="5.93" height="8.81" x="-2.96" y="-4.41" fill="none" rx="0" ry="0" transform="translate(256.73 286.77)"></rect><path fill="#e4e4e4" d="M266.15 290.56q-.75 0-1.34-.33-.58-.34-.91-.92-.34-.58-.34-1.33 0-.74.34-1.33.33-.58.91-.92.59-.34 1.34-.34.73 0 1.32.34.58.34.91.92.34.59.34 1.33 0 .75-.34 1.33-.33.58-.91.92-.59.33-1.32.33m-.02-.79q.51 0 .91-.23t.63-.64q.24-.4.24-.92t-.24-.92q-.23-.41-.63-.65-.4-.23-.91-.23-.5 0-.9.23-.39.24-.62.65-.24.4-.24.92t.24.92q.23.41.62.64.4.23.9.23m-2.25-3.1 2.72-4.47q.14-.23.38-.23.17 0 .29.1.12.1.15.26.02.15-.06.29l-1.82 2.96Z"></path><rect width="5.16" height="8.59" x="-2.58" y="-4.29" fill="none" rx="0" ry="0" transform="translate(266.64 286.77)"></rect><path fill="#e4e4e4" d="M272.38 290.62q-.77 0-1.38-.34-.61-.33-.96-.91-.35-.59-.35-1.32 0-.19.11-.32.11-.14.29-.14.19 0 .3.14.11.13.11.32 0 .5.24.9.25.4.67.64.42.24.94.24.86 0 1.34-.48.49-.48.49-1.24 0-.54-.24-.94-.23-.4-.62-.63-.4-.22-.89-.22-.18 0-.3-.12t-.12-.31q0-.18.12-.3t.3-.12q.38 0 .71-.19.32-.19.52-.51t.2-.71q0-.58-.4-.97t-1.06-.39q-.46 0-.82.18-.36.18-.57.49-.2.3-.2.68 0 .19-.12.32-.11.12-.29.12t-.29-.12q-.11-.13-.11-.31 0-.6.31-1.09.31-.49.85-.77t1.24-.28q.64 0 1.15.28.52.28.82.77.3.49.3 1.09 0 .38-.18.73t-.48.63q-.3.28-.65.44.56.16.94.5.37.34.55.8.17.46.17.95 0 .73-.34 1.29-.35.57-.96.9-.6.32-1.34.32"></path><rect width="5.33" height="8.7" x="-2.67" y="-4.35" fill="none" rx="0" ry="0" transform="translate(272.86 286.77)"></rect><path fill="#e4e4e4" d="M276.6 290.56q-.18 0-.31-.12-.12-.12-.12-.3 0-.17.12-.3l3.33-3.94q.28-.3.44-.66.17-.37.17-.69 0-.52-.21-.92-.2-.39-.57-.62-.37-.22-.84-.22-.46 0-.84.23-.38.24-.6.64-.21.39-.21.89 0 .17-.12.29-.12.13-.31.13-.18 0-.3-.13-.13-.12-.13-.29 0-.74.33-1.32.33-.59.9-.93.56-.34 1.28-.34.71 0 1.27.33.55.33.87.92.31.58.31 1.34 0 .36-.11.69-.12.33-.32.63-.2.31-.43.57l-2.81 3.27h3.44q.18 0 .3.13.13.13.13.3 0 .18-.13.3-.12.12-.3.12Z"></path><rect width="5.16" height="8.6" x="-2.58" y="-4.3" fill="none" rx="0" ry="0" transform="translate(279.18 286.76)"></rect><path fill="#e4e4e4" d="M282.48 287.98q-.18 0-.3-.12t-.12-.3q0-.19.12-.31t.3-.12h2.59q.18 0 .3.12t.12.31q0 .18-.12.3t-.3.12Z"></path><rect width="3.43" height=".85" x="-1.72" y="-.42" fill="none" rx="0" ry="0" transform="translate(284.27 288.06)"></rect><path fill="#e4e4e4" d="M288.95 290.56q-.82 0-1.4-.51-.58-.52-.88-1.48-.31-.96-.31-2.32 0-1.33.31-2.3.3-.96.88-1.48.58-.52 1.4-.52.83 0 1.41.52.58.53.88 1.49.3.97.3 2.29 0 1.34-.3 2.31-.3.96-.88 1.48-.58.52-1.41.52m0-.85q.59 0 .98-.45.38-.44.57-1.23.19-.78.19-1.78 0-.99-.2-1.76-.19-.78-.57-1.23-.39-.45-.97-.45t-.96.45q-.38.44-.58 1.22-.19.78-.19 1.77 0 1.01.19 1.79.2.78.58 1.22.38.45.96.45"></path><rect width="5.18" height="8.61" x="-2.59" y="-4.3" fill="none" rx="0" ry="0" transform="translate(289.45 286.76)"></rect><path fill="#e4e4e4" d="M293.17 290.56q-.17 0-.3-.12-.13-.12-.13-.3 0-.17.12-.3l3.34-3.94q.27-.3.44-.66.16-.37.16-.69 0-.52-.2-.92-.2-.39-.57-.62-.37-.22-.84-.22t-.85.23q-.38.24-.59.64-.21.39-.21.89 0 .17-.13.29-.12.13-.3.13t-.31-.13q-.12-.12-.12-.29 0-.74.33-1.32.33-.59.89-.93.57-.34 1.29-.34.71 0 1.27.33.55.33.87.92.31.58.31 1.34 0 .36-.12.69-.11.33-.31.63-.2.31-.43.57l-2.82 3.27h3.45q.17 0 .3.13.13.13.13.3 0 .18-.13.3t-.3.12Z"></path><rect width="5.16" height="8.6" x="-2.58" y="-4.3" fill="none" rx="0" ry="0" transform="translate(295.76 286.76)"></rect><path fill="#e4e4e4" d="M303.46 293.14q-.18 0-.3-.12-.13-.12-.13-.31v-10.32q0-.17.13-.3.12-.13.3-.13t.31.13q.12.13.12.3v10.32q0 .19-.12.31-.13.12-.31.12"></path><rect width=".86" height="11.18" x="-.43" y="-5.59" fill="none" rx="0" ry="0" transform="translate(303.96 288.05)"></rect><path fill="#e4e4e4" d="M312.31 290.67q-.7 0-1.3-.2-.6-.2-1.04-.58-.44-.37-.67-.87-.09-.17-.01-.32.09-.15.28-.2.16-.05.31.03.14.08.22.23.17.32.49.57.31.26.75.39.44.14.97.14.59 0 1.04-.19.45-.19.71-.56.25-.37.25-.9 0-.67-.49-1.15-.5-.49-1.55-.62-1.29-.15-2.01-.8-.73-.64-.73-1.58 0-.67.36-1.16.35-.5.98-.77t1.44-.27q.61 0 1.1.2.5.19.87.5.36.32.6.69.11.18.07.34-.04.17-.2.25-.16.08-.33.03-.17-.06-.26-.21-.16-.26-.41-.48-.25-.23-.6-.36-.35-.13-.85-.14-.87 0-1.4.37-.52.36-.52 1.07 0 .37.19.69.2.31.66.54.46.22 1.23.33 1.37.2 2.04.84.66.65.66 1.68 0 .59-.21 1.06-.22.46-.61.77t-.91.48q-.52.16-1.12.16"></path><rect width="5.93" height="8.81" x="-2.96" y="-4.41" fill="none" rx="0" ry="0" transform="translate(312.7 286.77)"></rect><path fill="#e4e4e4" d="M317.14 293.14q-.2 0-.31-.12-.12-.11-.12-.31v-5.19q.01-.86.42-1.55.4-.69 1.08-1.08.69-.4 1.55-.4.88 0 1.57.4.7.41 1.1 1.1.4.69.4 1.57 0 .87-.39 1.56-.39.7-1.06 1.1-.67.4-1.52.4-.74 0-1.34-.31-.6-.32-.96-.83v3.23q0 .2-.12.31-.11.12-.3.12m2.62-3.29q.64 0 1.14-.3.51-.29.8-.82.29-.52.29-1.17 0-.66-.29-1.18-.29-.51-.8-.81-.5-.31-1.14-.31-.63 0-1.13.31-.51.3-.8.81-.28.52-.28 1.18 0 .65.28 1.17.29.53.8.82.5.3 1.13.3"></path><rect width="6.12" height="8.65" x="-3.06" y="-4.33" fill="none" rx="0" ry="0" transform="translate(320.27 289.32)"></rect><path fill="#e4e4e4" d="M324.71 286.86q.03-.68.36-1.22.32-.54.84-.85.53-.31 1.16-.31.51 0 .79.14.27.15.2.42-.04.17-.14.22-.11.06-.26.05-.15-.01-.33-.03-.62-.05-1.1.13-.48.18-.76.56-.28.37-.28.89Zm.07 3.7q-.2 0-.31-.11-.11-.11-.11-.3v-5.18q0-.2.11-.31.11-.11.31-.11.19 0 .3.11.11.11.11.31v5.18q0 .19-.11.3-.11.11-.3.11"></path><rect width="3.74" height="6.08" x="-1.87" y="-3.04" fill="none" rx="0" ry="0" transform="translate(326.73 288.02)"></rect><path fill="#e4e4e4" d="M329.87 290.56q-.2 0-.31-.11-.12-.12-.12-.31v-5.16q0-.2.12-.32.11-.11.31-.11.19 0 .3.11.12.12.12.32v5.16q0 .19-.12.31-.11.11-.3.11m-.01-7.16q-.24 0-.42-.17-.18-.18-.18-.43 0-.28.19-.44.18-.16.42-.16.23 0 .41.16.18.16.18.44 0 .25-.17.43-.18.17-.43.17"></path><rect width="1.2" height="8.36" x="-.6" y="-4.18" fill="none" rx="0" ry="0" transform="translate(330.36 286.88)"></rect><path fill="#e4e4e4" d="M337.47 290.56q-.19 0-.31-.12t-.12-.29v-2.86q0-.69-.26-1.13-.26-.44-.7-.66-.45-.22-1.01-.22-.54 0-.97.21-.44.21-.69.58-.25.36-.25.82h-.61q.02-.69.38-1.24.35-.54.93-.85.58-.32 1.3-.32.78 0 1.4.33.61.32.97.95.36.62.36 1.53v2.86q0 .17-.12.29-.12.12-.3.12m-4.73 0q-.2 0-.31-.11-.12-.12-.12-.3v-5.17q0-.2.12-.32.11-.11.31-.11.19 0 .3.11.12.12.12.32v5.17q0 .18-.12.3-.11.11-.3.11"></path><rect width="5.58" height="6.08" x="-2.79" y="-3.04" fill="none" rx="0" ry="0" transform="translate(335.6 288.02)"></rect><path fill="#e4e4e4" d="M342.28 290.62q-.87 0-1.54-.39t-1.05-1.08q-.38-.7-.38-1.59 0-.9.39-1.59.4-.7 1.09-1.09.69-.39 1.57-.39.9 0 1.58.39.69.39 1.08 1.09.39.69.4 1.59l-.49.27q0 .81-.34 1.44-.34.63-.94.99-.6.36-1.37.36m.11 2.32q-.87 0-1.53-.32-.66-.33-1.09-.89-.12-.13-.11-.29.02-.15.16-.25.15-.1.32-.06.18.03.28.16.32.4.82.64.5.24 1.16.24.61 0 1.11-.3.49-.29.79-.83.29-.54.29-1.27v-1.67l.32-.64.51.1v2.25q0 .89-.39 1.6-.4.71-1.08 1.12-.68.41-1.56.41m-.03-3.09q.65 0 1.15-.29.5-.29.79-.81.29-.52.29-1.19 0-.67-.29-1.19-.29-.52-.79-.82-.5-.29-1.15-.29-.64 0-1.15.29-.51.3-.79.82-.29.52-.29 1.19 0 .67.29 1.19.28.52.79.81.51.29 1.15.29"></path><rect width="6.11" height="8.45" x="-3.06" y="-4.22" fill="none" rx="0" ry="0" transform="translate(342.87 289.22)"></rect><path fill="#e4e4e4" d="M350.25 290.56q-.17 0-.3-.12-.13-.12-.13-.3 0-.17.12-.3l3.34-3.94q.27-.3.44-.66.16-.37.16-.69 0-.52-.2-.92-.21-.39-.57-.62-.37-.22-.85-.22-.46 0-.84.23-.38.24-.59.64-.22.39-.22.89 0 .17-.12.29-.12.13-.3.13t-.31-.13q-.12-.12-.12-.29 0-.74.33-1.32.33-.59.89-.93.57-.34 1.28-.34.72 0 1.28.33.55.33.86.92.32.58.32 1.34 0 .36-.12.69-.11.33-.31.63-.2.31-.43.57l-2.82 3.27h3.45q.17 0 .3.13.13.13.13.3 0 .18-.13.3t-.3.12Z"></path><rect width="5.16" height="8.6" x="-2.58" y="-4.3" fill="none" rx="0" ry="0" transform="translate(352.84 286.76)"></rect><path fill="#e4e4e4" d="M358.44 290.56q-.82 0-1.4-.51-.58-.52-.89-1.48-.3-.96-.3-2.32 0-1.33.3-2.3.31-.96.89-1.48.58-.52 1.4-.52.83 0 1.41.52.58.53.88 1.49.3.97.3 2.29 0 1.34-.3 2.31-.3.96-.88 1.48-.58.52-1.41.52m0-.85q.59 0 .97-.45.39-.44.58-1.23.18-.78.18-1.78 0-.99-.19-1.76-.19-.78-.58-1.23-.38-.45-.96-.45-.59 0-.97.45-.38.44-.57 1.22-.19.78-.19 1.77 0 1.01.19 1.79t.57 1.22q.38.45.97.45"></path><rect width="5.18" height="8.61" x="-2.59" y="-4.3" fill="none" rx="0" ry="0" transform="translate(358.94 286.76)"></rect><path fill="#e4e4e4" d="M362.66 290.56q-.18 0-.3-.12-.13-.12-.13-.3 0-.17.12-.3l3.33-3.94q.28-.3.44-.66.17-.37.17-.69 0-.52-.2-.92-.21-.39-.58-.62-.36-.22-.84-.22-.46 0-.84.23-.38.24-.59.64-.22.39-.22.89 0 .17-.12.29-.12.13-.31.13-.17 0-.3-.13-.13-.12-.13-.29 0-.74.33-1.32.33-.59.9-.93.57-.34 1.28-.34.72 0 1.27.33.56.33.87.92.32.58.32 1.34 0 .36-.12.69-.12.33-.31.63-.2.31-.43.57l-2.82 3.27h3.44q.18 0 .31.13.12.13.12.3 0 .18-.12.3-.13.12-.31.12Z"></path><rect width="5.16" height="8.6" x="-2.58" y="-4.3" fill="none" rx="0" ry="0" transform="translate(365.24 286.76)"></rect><path fill="#e4e4e4" d="M371.21 290.56q-.8 0-1.42-.36-.63-.37-1-1-.37-.64-.37-1.43 0-.19.12-.31.13-.12.3-.12.19 0 .32.12.12.12.12.31 0 .55.25.99.26.44.69.69.44.26.99.26t.99-.26q.44-.25.69-.69.25-.44.25-.99t-.25-.99q-.25-.44-.69-.69-.44-.26-.99-.26h-1.93q-.19 0-.31-.12-.12-.13-.12-.3v-3.02q0-.17.12-.3.12-.13.31-.13h3.86q.18 0 .31.13.12.13.12.3 0 .18-.12.3-.12.13-.31.13h-3.44v2.16h1.51q.8 0 1.43.37.62.36.99 1 .37.63.37 1.42 0 .79-.37 1.43-.37.63-.99 1-.63.36-1.43.36"></path><rect width="5.58" height="8.6" x="-2.79" y="-4.3" fill="none" rx="0" ry="0" transform="translate(371.71 286.76)"></rect><path fill="#e4e4e4" d="m282.919 124.512-6.123-16.98-3.876 4.592-23.832-20.117a29.017 29.017 0 0 0 3.457-16.399c-1.356-16.05-15.466-27.962-31.516-26.604-16.05 1.356-27.962 15.466-26.604 31.516 1.356 16.05 15.466 27.962 31.516 26.604a29.07 29.07 0 0 0 19.713-10.123l23.377 19.733-3.877 4.593zM229.51 65.175a4.734 4.734 0 1 1 0 9.47 4.734 4.734 0 0 1 0-9.47m-13.512 0a4.734 4.734 0 1 1 0 9.47 4.734 4.734 0 0 1 0-9.47m7.592 31.248c-9.247 0-16.742-7.785-16.742-16.742h33.483c0 8.957-7.496 16.742-16.741 16.742"></path><path fill="#e4e4e4" d="m323.309 111.885 7.509-13.101 5.141 3.113.376-18.047-15.817 8.695 5.141 3.113-7.975 13.87a29.09 29.09 0 0 0-10.896-1.163c-16.05 1.357-27.963 15.467-26.605 31.517 1.356 16.05 15.466 27.962 31.516 26.604 16.05-1.356 27.963-15.466 26.605-31.516-.853-10.087-6.75-18.535-14.995-23.085m-7.29 10.714a4.735 4.735 0 1 1 0 9.47 4.735 4.735 0 1 1 0-9.47m-13.513 0a4.735 4.735 0 1 1 0 9.47 4.735 4.735 0 1 1 0-9.47m7.59 32.799c-10.34 0-18.753-8.412-18.753-18.753a2.012 2.012 0 1 1 4.023 0c0 8.121 6.608 14.73 14.73 14.73 8.124 0 14.732-6.609 14.732-14.73a2.012 2.012 0 1 1 4.023 0c0 10.34-8.414 18.753-18.755 18.753m-45.132-94.9 25.439-12.026a29.166 29.166 0 0 0 21.47 12.575l.435 10.471-4.988.38 10.189 14.9 7.811-16.272-6.995.534-.406-10.11c15.536-1.849 26.936-15.67 25.606-31.382-1.356-16.05-15.466-27.962-31.516-26.604-16.05 1.356-27.962 15.466-26.604 31.516a29.166 29.166 0 0 0 2.108 8.688L262.26 55.105l-2.721-5.428-9.928 15.076 18.019 1.062zm55.617-43.788a4.735 4.735 0 1 1 .001 9.47 4.735 4.735 0 0 1-.001-9.47m-13.512 0a4.735 4.735 0 1 1 0 9.47 4.735 4.735 0 1 1 0-9.47m-9.152 12.034c1.113 0 2.012.901 2.012 2.012 0 8.121 6.608 14.73 14.73 14.73 8.123 0 14.731-6.609 14.731-14.73a2.012 2.012 0 1 1 4.024 0c0 10.34-8.412 18.753-18.755 18.753-10.34 0-18.753-8.412-18.753-18.753a2.01 2.01 0 0 1 2.011-2.012M116.87 151.99V127h10.95v3.33h-7.17v6.91h5.78v3.4h-5.78v7.99h8.29v3.36Z"></path><rect width="12.07" height="24.99" x="-6.04" y="-12.49" fill="none" rx="0" ry="0" transform="translate(123.4 140)"></rect><path fill="#e4e4e4" d="M138.43 152.33q-1.43 0-2.82-.36-1.4-.35-2.49-.88-1.08-.53-1.63-1.07l1.8-3.23q.38.31 1.18.8.8.49 1.85.87 1.05.37 2.11.37 1.73 0 2.91-.82 1.17-.81 1.17-2.38 0-1.29-.68-2.14-.68-.85-1.79-1.49-1.1-.65-2.38-1.25-1.27-.59-2.43-1.34-1.32-.88-2.31-2.34-.99-1.47-.99-3.78 0-2.28 1.04-3.74 1.04-1.46 2.76-2.19 1.71-.73 3.75-.73 1.63 0 2.79.34 1.16.34 1.94.81.78.48 1.22.85l-1.8 3.1q-.58-.61-1.73-1.14-1.16-.53-2.59-.53-1.66 0-2.65.77-.99.76-.99 2.26 0 1.32.89 2.26.88.93 2.26 1.7 1.38.76 2.84 1.55 1.46.78 2.58 1.83.92.82 1.57 2.04.64 1.23.64 2.76 0 2.31-1.07 3.91-1.07 1.59-2.87 2.39t-4.08.8"></path><rect width="14.96" height="25.7" x="-7.48" y="-12.85" fill="none" rx="0" ry="0" transform="translate(139.47 139.98)"></rect><path fill="#e4e4e4" d="M154.27 151.99v-21.66h-6.39V127h16.63v3.33h-6.46v21.66Z"></path><rect width="16.63" height="24.99" x="-8.31" y="-12.49" fill="none" rx="0" ry="0" transform="translate(156.7 140)"></rect><path fill="#e4e4e4" d="M166 152.33q-1.02 0-1.73-.7-.72-.69-.72-1.71 0-1.06.7-1.75.7-.7 1.75-.7 1.09 0 1.77.7.68.69.68 1.75 0 1.02-.7 1.71-.69.7-1.75.7"></path><rect width="4.9" height="4.86" x="-2.45" y="-2.43" fill="none" rx="0" ry="0" transform="translate(166.5 150.4)"></rect><path fill="#e4e4e4" d="m374.52 149.5 6.91-8.65q.56-.73 1.28-1.78.71-1.05 1.26-2.18.54-1.14.54-2.12 0-1.54-.82-2.38-.83-.84-2.48-.84-1.15 0-1.93.51-.79.5-1.28 1.17-.49.68-.77 1.21l-2.6-1.4q.53-1.01 1.39-2.03.85-1.02 2.14-1.72t3.13-.7q2.13 0 3.56.75 1.43.76 2.14 2.07.72 1.32.72 3 0 1.79-.89 3.67-.88 1.87-2.47 3.83l-3.81 4.82h7.98v2.77Z"></path><rect width="14" height="20.91" x="-7" y="-10.46" fill="none" rx="0" ry="0" transform="translate(382.02 139.55)"></rect><path fill="#e4e4e4" d="M398.99 149.92q-2.04 0-3.47-.84-1.43-.84-2.33-2.31-.89-1.47-1.3-3.41-.4-1.95-.4-4.13 0-2.27.39-4.2.39-1.94 1.26-3.38t2.31-2.25q1.44-.81 3.54-.81 2.8 0 4.42 1.37 1.63 1.37 2.34 3.76.72 2.4.72 5.51 0 2.99-.75 5.43-.74 2.43-2.38 3.85-1.63 1.41-4.35 1.41m0-2.85q1.26 0 2.06-.68.8-.67 1.23-1.82.43-1.14.6-2.53.17-1.39.17-2.81 0-1.57-.17-2.97-.17-1.4-.6-2.49-.43-1.1-1.23-1.73-.8-.63-2.06-.63t-2.07.63q-.81.63-1.25 1.73-.43 1.09-.6 2.49-.17 1.4-.17 2.97 0 1.42.17 2.81.17 1.39.6 2.52.44 1.13 1.25 1.82.81.69 2.07.69"></path><rect width="14.98" height="21.33" x="-7.49" y="-10.66" fill="none" rx="0" ry="0" transform="translate(399.48 139.76)"></rect><path fill="#e4e4e4" d="m408.96 149.5 6.91-8.65q.56-.73 1.28-1.78.71-1.05 1.26-2.18.54-1.14.54-2.12 0-1.54-.82-2.38-.83-.84-2.48-.84-1.15 0-1.93.51-.79.5-1.28 1.17-.49.68-.77 1.21l-2.6-1.4q.53-1.01 1.39-2.03.85-1.02 2.14-1.72t3.13-.7q2.13 0 3.56.75 1.43.76 2.14 2.07.72 1.32.72 3 0 1.79-.89 3.67-.88 1.87-2.47 3.83l-3.81 4.82h7.98v2.77Z"></path><rect width="14" height="20.91" x="-7" y="-10.46" fill="none" rx="0" ry="0" transform="translate(416.46 139.55)"></rect><path fill="#e4e4e4" d="M432.25 149.92q-1.84 0-3.4-.47-1.55-.48-2.62-1.4l1.43-2.64q.25.2.88.58.63.38 1.57.68.94.31 2.06.31 1.88 0 3.11-1.06 1.23-1.07 1.23-2.94 0-1.04-.43-1.95-.44-.91-1.46-1.48-1.02-.58-2.79-.58-.84 0-1.75.1t-1.66.27q-.76.17-1.15.39l.42-10.81h10.56v2.75h-7.51l-.28 4.87q.39-.11.97-.17.57-.06 1.38-.06 3.25 0 5.11 1.7 1.87 1.69 1.87 4.66 0 2.13-.89 3.77-.88 1.63-2.56 2.56-1.68.92-4.09.92"></path><rect width="13.56" height="21" x="-6.78" y="-10.5" fill="none" rx="0" ry="0" transform="translate(433.51 139.92)"></rect></svg></svg>