<svg xmlns="http://www.w3.org/2000/svg" version="1.1" xmlns:xlink="http://www.w3.org/1999/xlink" width="1500" height="1500" viewBox="0 0 1500 1500"><rect width="1500" height="1500" x="0" y="0" id="background" stroke="transparent" fill="#020202"></rect><svg xml:space="preserve" width="1000" height="1000" data-version="2" data-id="lg_4CTySILr5Sn91wuGDE" viewBox="0 0 569 478" x="250" y="250"><rect width="100%" height="100%" fill="transparent"></rect><path fill="#161616" stroke="#d5d5d5" stroke-width="1.03" d="M125.6 372.13h313.594m-312.167 68.124h314.37"></path><path fill="#d5d5d5" d="M5.465 388.61h11.09v16.56q0 1.5.72 2.51.72 1.01 2.34 1.01 1.62 0 2.34-1.05.72-1.04.72-2.54v-16.49h9.72v16.88q0 6.05-3.33 8.96-3.33 2.92-9.63 2.92-6.85 0-10.41-2.92-3.56-2.91-3.56-8.96Z"></path><rect width="26.93" height="28.76" x="-13.46" y="-14.38" fill="none" rx="0" ry="0" transform="translate(19.43 403.49)"></rect><path fill="#d5d5d5" d="M51.345 406.14q0-2.87-.84-4.11-.83-1.25-2.26-1.25-.79 0-1.1.67-.3.66-.3 1.6v13.64h-10.44v-21.85h5.76l2.52 3.41q1.45-1.99 3.93-3.11 2.48-1.13 5.14-1.13 2.21 0 4.06.92 1.84.93 2.94 2.67 1.1 1.74 1.1 4.18v14.91h-10.51Z"></path><rect width="25.45" height="22.68" x="-12.72" y="-11.34" fill="none" rx="0" ry="0" transform="translate(49.63 405.85)"></rect><path fill="#d5d5d5" d="M65.125 406.86q0-3.32 1.11-5.74 1.1-2.42 2.98-3.99 1.87-1.57 4.16-2.33 2.3-.75 4.67-.75 1.25 0 2.47.16 1.22.17 2.34.52v-7.63h10.24v29.59h-6.53l-2.51-3.64q-1.65 2.18-3.88 3.22-2.22 1.03-4.57 1.03-1.99 0-3.86-.7-1.88-.7-3.37-2.06-1.49-1.35-2.37-3.28-.88-1.94-.88-4.4m12.64 3.16q1.1 0 2.07-.4.97-.4 1.74-.95.78-.54 1.28-.95v-6.26q-.59-.36-1.35-.36-.97 0-1.93.58-.97.59-1.78 1.57-.81.97-1.29 2.12-.48 1.14-.48 2.25 0 .82.39 1.61.4.79 1.35.79"></path><rect width="27.97" height="30.2" x="-13.98" y="-15.1" fill="none" rx="0" ry="0" transform="translate(79.61 402.7)"></rect><path fill="#d5d5d5" d="M107.895 417.34q-2.13 0-4.15-.67-2.02-.67-3.66-2-1.63-1.32-2.6-3.27-.97-1.96-.97-4.54 0-3.22 1.15-5.63 1.16-2.42 3.12-4.03 1.97-1.61 4.47-2.42 2.5-.8 5.18-.8 3.42 0 5.55 1.03 2.14 1.04 3.14 2.68 1 1.63 1 3.44 0 1.95-1.25 3.78-1.25 1.83-3.66 3.01-2.42 1.17-5.95 1.17-.34 0-.89-.01-.55 0-.96-.02 0 1.11.53 1.6t1.33.61q.8.13 1.6.13.73 0 2.03-.24 1.31-.24 2.84-.87 1.53-.63 2.9-1.81l1.09 5.46q-2.07 1.8-5.24 2.6-3.18.8-6.6.8m-.48-12.29 3.85-.86.34-2.69q0-.11.01-.2.02-.1.02-.2 0-1.55-1.44-1.55-1.25.1-1.74.85t-.63 1.95q-.14 1.21-.41 2.7"></path><rect width="23.61" height="23.36" x="-11.8" y="-11.68" fill="none" rx="0" ry="0" transform="translate(108.82 406.16)"></rect><path fill="#d5d5d5" d="M139.425 403.08q-1.09 0-2.27.56-1.17.57-1.97 1.36-.8.79-.8 1.49v10.2h-10.59v-21.85h10.59v2.34q.89-1.36 2.22-2.17 1.33-.81 2.82-.96Z"></path><rect width="15.63" height="22.64" x="-7.82" y="-11.32" fill="none" rx="0" ry="0" transform="translate(132.11 405.87)"></rect><path fill="#d5d5d5" d="M142.155 409.23q.33.02 1.26.36.93.33 2.09.65 1.16.33 2.17.33.51 0 .82-.18.32-.19.32-.68 0-.65-.68-1.09-.68-.44-1.68-.92-1-.49-2.01-1.24-1.01-.76-1.69-2.03-.67-1.28-.67-3.3 0-1.97.83-3.33.84-1.36 2.25-2.2 1.42-.83 3.18-1.21 1.77-.38 3.63-.38 1.6 0 3.03.16 1.42.16 2.41.34 1 .19 1.26.26v6.62l-.62-.14q-.63-.14-1.56-.31-.93-.18-1.88-.32-.95-.14-1.62-.14-.51 0-.78.23t-.27.53q0 .28.3.54.29.26 1.21.63 1.39.57 2.58 1.14 1.2.57 2.1 1.36.91.79 1.41 2.02.5 1.23.5 3.13 0 3.62-2.57 5.45-2.56 1.83-6.82 1.83-3.37 0-5.22-.4-1.84-.39-2.56-.79l-.72-.39Z"></path><rect width="17.96" height="23.33" x="-8.98" y="-11.66" fill="none" rx="0" ry="0" transform="translate(151.56 406.18)"></rect><path fill="#d5d5d5" d="M162.685 394.84h2v-5.91l10.51-1.07v6.98h4.98v5.57h-4.98v5.52q0 2.39 1.07 3.55 1.08 1.16 3.91 1.16v4.47q-1.51 1.01-3.45 1.64-1.93.62-3.94.62-2.21 0-4.05-.93-1.83-.93-2.94-2.69-1.11-1.76-1.11-4.2v-9.14h-2Z"></path><rect width="17.49" height="29.51" x="-8.74" y="-14.76" fill="none" rx="0" ry="0" transform="translate(171.93 403.12)"></rect><path fill="#d5d5d5" d="M182.655 406.76q0-2.89.97-5.23.98-2.33 2.66-4.02 1.69-1.69 3.84-2.59 2.14-.91 4.48-.91 1.88 0 3.68.92 1.8.93 2.88 2.6l2.51-2.69h5.76v21.85h-5.76l-2.51-3.64q-1.36 2-3.64 3.14-2.29 1.15-4.71 1.15-2.68 0-5-1.15-2.32-1.16-3.74-3.5-1.42-2.35-1.42-5.93m10.47.86q0 .86.41 1.63.4.77 1.32.77.87 0 2.25-.53 1.37-.54 2.86-1.8v-6.23q-.61-.36-1.39-.36-1 0-1.97.6-.96.61-1.75 1.58-.78.98-1.25 2.12-.48 1.14-.48 2.22"></path><rect width="26.78" height="23.33" x="-13.39" y="-11.66" fill="none" rx="0" ry="0" transform="translate(196.54 406.18)"></rect><path fill="#d5d5d5" d="M228.585 406.14q0-2.87-.84-4.11-.83-1.25-2.26-1.25-.79 0-1.09.67-.31.66-.31 1.6v13.64h-10.44v-21.85h5.76l2.52 3.41q1.45-1.99 3.93-3.11 2.48-1.13 5.14-1.13 2.21 0 4.06.92 1.84.93 2.94 2.67 1.1 1.74 1.1 4.18v14.91h-10.51Z"></path><rect width="25.45" height="22.68" x="-12.72" y="-11.34" fill="none" rx="0" ry="0" transform="translate(226.87 405.85)"></rect><path fill="#d5d5d5" d="M242.365 406.86q0-3.32 1.11-5.74 1.1-2.42 2.98-3.99 1.87-1.57 4.16-2.33 2.3-.75 4.67-.75 1.25 0 2.47.16 1.22.17 2.35.52v-7.63h10.23v29.59h-6.53l-2.51-3.64q-1.65 2.18-3.88 3.22-2.22 1.03-4.57 1.03-1.99 0-3.86-.7-1.88-.7-3.37-2.06-1.49-1.35-2.37-3.28-.88-1.94-.88-4.4m12.64 3.16q1.1 0 2.07-.4.97-.4 1.74-.95.78-.54 1.29-.95v-6.26q-.6-.36-1.36-.36-.97 0-1.93.58-.97.59-1.78 1.57-.81.97-1.29 2.12-.48 1.14-.48 2.25 0 .82.39 1.61.4.79 1.35.79"></path><rect width="27.97" height="30.2" x="-13.98" y="-15.1" fill="none" rx="0" ry="0" transform="translate(256.85 402.7)"></rect><path fill="#d5d5d5" d="M280.195 384.71q2.49 0 3.68 1.13 1.19 1.12 1.19 2.58 0 1.09-.68 2.15-.68 1.07-1.98 1.76-1.3.7-3.18.7-2.71 0-3.81-1.1-1.09-1.1-1.09-2.49 0-1.12.65-2.21.65-1.08 1.96-1.8t3.26-.72m4.57 31.98h-10.18v-21.85h10.18Z"></path><rect width="10.74" height="31.98" x="-5.37" y="-15.99" fill="none" rx="0" ry="0" transform="translate(280.2 401.2)"></rect><path fill="#d5d5d5" d="M303.955 406.14q0-2.87-.83-4.11-.84-1.25-2.26-1.25-.79 0-1.1.67-.31.66-.31 1.6v13.64h-10.44v-21.85h5.77l2.51 3.41q1.46-1.99 3.94-3.11 2.48-1.13 5.13-1.13 2.22 0 4.06.92 1.85.93 2.95 2.67 1.09 1.74 1.09 4.18v14.91h-10.51Z"></path><rect width="25.45" height="22.68" x="-12.72" y="-11.34" fill="none" rx="0" ry="0" transform="translate(302.24 405.85)"></rect><path fill="#d5d5d5" d="M335.365 413.98q-1.52 1.67-3.5 2.51-1.98.85-4.09.85-2.65 0-4.95-1.18-2.29-1.18-3.69-3.56t-1.4-5.95q0-2.88.96-5.21t2.62-3.99q1.66-1.66 3.8-2.55 2.13-.89 4.47-.89 1.88 0 3.68.92 1.79.93 2.86 2.6l2.53-2.69h5.75v21.85q0 2.81-1 4.69-1 1.88-2.69 2.99-1.69 1.11-3.78 1.59t-4.29.48q-1.62 0-3.18-.2-1.57-.2-2.95-.55v-6.23q.89.11 1.96.3 1.06.2 2.11.2 1.27 0 2.36-.47 1.09-.47 1.76-1.76.66-1.29.66-3.75m-5.53-3.96q1.1 0 2.07-.4.97-.4 1.74-.95.78-.54 1.3-.95v-6.26q-.61-.36-1.37-.36-.97 0-1.93.58-.97.59-1.77 1.57-.8.97-1.28 2.12-.49 1.14-.49 2.25 0 .82.39 1.61.39.79 1.34.79"></path><rect width="26.67" height="32.43" x="-13.34" y="-16.21" fill="none" rx="0" ry="0" transform="translate(331.57 410.73)"></rect><path fill="#d5d5d5" d="m357.515 388.61 1.06-.07 2.76-.21q1.7-.12 3.71-.23 2-.12 3.94-.2 1.95-.08 3.44-.08 3.44 0 5.98 1.3 2.53 1.31 4.18 3.48t2.46 4.8q.81 2.62.81 5.28 0 3.3-1.13 5.9-1.12 2.61-3.13 4.42-2.02 1.81-4.73 2.75-2.72.94-5.88.94h-13.47Zm10.94 19.62q.93-.79 2-1.58 1.07-.79 2.03-1.69.96-.89 1.57-2.01.6-1.12.6-2.58 0-.96-.4-1.96-.41-1.01-1.17-1.68-.77-.68-1.89-.68-.81 0-1.52.44t-1.22 1.04Z"></path><rect width="28.34" height="28.87" x="-14.17" y="-14.44" fill="none" rx="0" ry="0" transform="translate(372.19 402.75)"></rect><path fill="#d5d5d5" d="M394.905 384.71q2.5 0 3.68 1.13 1.19 1.12 1.19 2.58 0 1.09-.68 2.15-.67 1.07-1.97 1.76-1.3.7-3.19.7-2.7 0-3.8-1.1-1.1-1.1-1.1-2.49 0-1.12.65-2.21.65-1.08 1.96-1.8t3.26-.72m4.57 31.98h-10.18v-21.85h10.18Z"></path><rect width="10.74" height="31.98" x="-5.37" y="-15.99" fill="none" rx="0" ry="0" transform="translate(394.9 401.2)"></rect><path fill="#d5d5d5" d="M403.365 409.23q.33.02 1.26.36.93.33 2.09.65 1.16.33 2.17.33.51 0 .82-.18.32-.19.32-.68 0-.65-.68-1.09-.67-.44-1.68-.92-1-.49-2.01-1.24-1.01-.76-1.69-2.03-.67-1.28-.67-3.3 0-1.97.83-3.33.84-1.36 2.25-2.2 1.42-.83 3.18-1.21 1.77-.38 3.63-.38 1.6 0 3.03.16 1.42.16 2.41.34 1 .19 1.26.26v6.62l-.62-.14q-.63-.14-1.56-.31-.93-.18-1.88-.32-.95-.14-1.62-.14-.51 0-.78.23t-.27.53q0 .28.3.54t1.21.63q1.39.57 2.58 1.14 1.2.57 2.1 1.36.91.79 1.41 2.02.5 1.23.5 3.13 0 3.62-2.57 5.45-2.56 1.83-6.82 1.83-3.37 0-5.22-.4-1.84-.39-2.56-.79l-.72-.39Z"></path><rect width="17.96" height="23.33" x="-8.98" y="-11.66" fill="none" rx="0" ry="0" transform="translate(412.77 406.18)"></rect><path fill="#d5d5d5" d="M441.415 394.01q2.96 0 4.93 1.2 1.98 1.19 2.97 3.19 1 1.99 1 4.44 0 1.68-.49 3.56-.5 1.88-1.58 3.69-1.08 1.8-2.84 3.27-1.75 1.46-4.25 2.36-2.5.9-5.85.97v5.69h-10.45v-27.54h5.77l2.44 3.37q2.11-2.27 4.32-3.23 2.21-.97 4.03-.97m-1.75 7.26q-.78 0-1.62.61-.85.6-1.57 1.56-.72.96-1.17 2.01v5.05q.45-.32 1.47-.97 1.02-.65 2.15-1.61 1.12-.95 1.91-2.18.79-1.23.79-2.69 0-.72-.46-1.25-.47-.53-1.5-.53"></path><rect width="25.46" height="28.37" x="-12.73" y="-14.19" fill="none" rx="0" ry="0" transform="translate(438.08 408.7)"></rect><path fill="#d5d5d5" d="M452.215 406.76q0-2.89.97-5.23.98-2.33 2.67-4.02 1.68-1.69 3.83-2.59 2.14-.91 4.48-.91 1.88 0 3.68.92 1.8.93 2.88 2.6l2.51-2.69h5.77v21.85h-5.77l-2.51-3.64q-1.36 2-3.64 3.14-2.29 1.15-4.71 1.15-2.68 0-5-1.15-2.32-1.16-3.74-3.5-1.42-2.35-1.42-5.93m10.47.86q0 .86.41 1.63.4.77 1.32.77.87 0 2.25-.53 1.37-.54 2.86-1.8v-6.23q-.61-.36-1.39-.36-1 0-1.97.6-.96.61-1.75 1.58-.78.98-1.25 2.12-.48 1.14-.48 2.22"></path><rect width="26.79" height="23.33" x="-13.39" y="-11.66" fill="none" rx="0" ry="0" transform="translate(466.11 406.18)"></rect><path fill="#d5d5d5" d="M498.825 403.08q-1.09 0-2.26.56-1.18.57-1.98 1.36-.8.79-.8 1.49v10.2h-10.58v-21.85h10.58v2.34q.9-1.36 2.22-2.17 1.33-.81 2.82-.96Z"></path><rect width="15.62" height="22.64" x="-7.81" y="-11.32" fill="none" rx="0" ry="0" transform="translate(491.51 405.87)"></rect><path fill="#d5d5d5" d="M507.525 384.71q2.5 0 3.69 1.13 1.18 1.12 1.18 2.58 0 1.09-.67 2.15-.68 1.07-1.98 1.76-1.3.7-3.18.7-2.71 0-3.81-1.1t-1.1-2.49q0-1.12.65-2.21.65-1.08 1.96-1.8t3.26-.72m4.58 31.98h-10.18v-21.85h10.18Z"></path><rect width="10.74" height="31.98" x="-5.37" y="-15.99" fill="none" rx="0" ry="0" transform="translate(507.52 401.2)"></rect><path fill="#d5d5d5" d="M515.385 394.84h2.01v-5.91l10.51-1.07v6.98h4.97v5.57h-4.97v5.52q0 2.39 1.07 3.55 1.07 1.16 3.9 1.16v4.47q-1.51 1.01-3.44 1.64-1.94.62-3.94.62-2.22 0-4.05-.93-1.84-.93-2.95-2.69-1.1-1.76-1.1-4.2v-9.14h-2.01Z"></path><rect width="17.49" height="29.51" x="-8.74" y="-14.76" fill="none" rx="0" ry="0" transform="translate(524.63 403.12)"></rect><path fill="#d5d5d5" d="M554.325 415.25q-.95 2.37-2.2 4.22-1.25 1.86-3.02 2.92-1.78 1.06-4.33 1.06-2.09 0-4.08-.25-1.98-.26-3.18-.75v-6.24q.78.2 2.15.35 1.37.16 2.53.16 1.16 0 1.85-.73.7-.73.7-1.75 0-.24-.05-.49-.04-.24-.13-.53l-9.03-18.38h10.47l3.78 8.45 3.54-8.45h9.21Z"></path><rect width="27" height="28.61" x="-13.5" y="-14.3" fill="none" rx="0" ry="0" transform="translate(549.53 409.64)"></rect><path fill="#d5d5d5" d="M145.325 468.55q2.97-.02 3.64-1.92l.19 1.85h1.07v-5.9h-4.54v1.13h2.64v.89q-.05 1.39-.72 2.04-.68.64-2.12.64-1.53 0-2.31-1.02-.77-1.01-.77-3.84 0-3.03.77-3.98.78-.94 2.31-.94 1.49 0 2.17.82.68.83.72 2.54h1.85q-.05-1.96-1.09-3.29-1.04-1.34-3.65-1.34-2.75 0-3.84 1.45-1.1 1.46-1.1 4.69 0 3.2 1.08 4.69 1.07 1.49 3.7 1.49"></path><rect width="9.68" height="12.32" x="-4.84" y="-6.16" fill="none" rx="0" ry="0" transform="translate(145.88 462.89)"></rect><path fill="#d5d5d5" d="M158.715 462.78h1.81q0-2.64-.7-3.85-.71-1.21-2.53-1.21-1.76 0-2.81.97-1.04.96-1.04 2.33l.7.51q0-.98.67-1.76.66-.78 1.83-.78 1.01 0 1.54.8t.53 2.99m-6.38 5.7h1.82v-8.61l-.39-2.06h-1.43Z"></path><rect width="8.19" height="10.76" x="-4.09" y="-5.38" fill="none" rx="0" ry="0" transform="translate(156.93 463.6)"></rect><path fill="#d5d5d5" d="M166.585 468.55q2.39 0 3.54-1.33 1.15-1.32 1.15-4.11 0-2.78-1.15-4.1-1.15-1.31-3.54-1.31-2.38 0-3.54 1.31-1.15 1.32-1.15 4.1 0 2.79 1.15 4.11 1.16 1.33 3.54 1.33m0-1.25q-1.25 0-2.06-.88t-.81-3.3q0-2.42.81-3.29.81-.87 2.06-.87t2.06.87q.81.87.81 3.29t-.81 3.3q-.81.88-2.06.88"></path><rect width="9.38" height="10.85" x="-4.69" y="-5.42" fill="none" rx="0" ry="0" transform="translate(167.09 463.63)"></rect><path fill="#d5d5d5" d="M180.065 468.48h1.42v-10.67h-1.82v8.87Zm-5.32-10.68h-1.81v6.16q0 2.18.76 3.4.76 1.22 2.63 1.22 1.94 0 3.09-1.17 1.15-1.16 1.15-2.47l-.89-.53q0 1.26-.79 2.07-.79.82-1.92.82t-1.67-.77q-.55-.78-.55-2.64Z"></path><rect width="8.55" height="10.78" x="-4.28" y="-5.39" fill="none" rx="0" ry="0" transform="translate(177.71 463.69)"></rect><path fill="#d5d5d5" d="M183.555 472.46h1.81v-12.83l-.38-1.82h-1.43Zm5.22-3.91q1.91 0 2.86-1.36.94-1.37.94-4.07 0-2.71-.94-4.06-.95-1.35-2.86-1.35-1.75 0-2.97.88-1.23.88-1.23 1.83l.79.96q0-.93.83-1.66.83-.74 1.96-.74 1.21 0 1.9.89.69.9.69 3.26 0 2.38-.69 3.26-.69.89-1.9.89-1.13 0-1.96-.73-.83-.74-.83-1.68l-.79.98q0 .95 1.23 1.82 1.22.88 2.97.88"></path><rect width="9.02" height="14.75" x="-4.51" y="-7.38" fill="none" rx="0" ry="0" transform="translate(188.56 465.58)"></rect><path fill="#d5d5d5" d="M198.635 468.48h7.35v-1.28h-2.75v-10.89h-1.51l-3.15.77v1.37l2.84-.65v9.4h-2.78Z"></path><rect width="7.41" height="12.17" x="-3.71" y="-6.08" fill="none" rx="0" ry="0" transform="translate(202.78 462.9)"></rect><path fill="#d5d5d5" d="M211.785 470.51h1.51v-14.83h-1.51Z"></path><rect width="1.51" height="14.83" x="-.76" y="-7.42" fill="none" rx="0" ry="0" transform="translate(213.04 463.6)"></rect><path fill="#d5d5d5" d="M223.885 468.55q2.65 0 3.68-1 1.03-1 1.03-2.45 0-1.54-.95-2.17-.95-.63-3.23-1.19-1.64-.41-2.56-.86-.93-.45-.93-1.5 0-.83.76-1.36.75-.52 2.16-.52 1.38 0 2.14.61.76.61.76 2.62h1.84q0-2.3-1.03-3.4t-3.69-1.1q-2.61 0-3.67.98-1.05.98-1.05 2.37 0 1.52.96 2.19.96.68 3.18 1.23 1.67.39 2.58.83.91.44.91 1.53 0 .89-.74 1.4-.75.52-2.16.52-1.42 0-2.16-.62-.73-.62-.73-2.69h-1.85q0 2.43 1.02 3.5 1.02 1.08 3.73 1.08"></path><rect width="9.46" height="12.32" x="-4.73" y="-6.16" fill="none" rx="0" ry="0" transform="translate(224.37 462.89)"></rect><path fill="#d5d5d5" d="M230.265 468.48h8.06v-1.28h-6.21v-4.33h5.83v-1.21h-5.83v-4.05h6.21v-1.28h-8.06Z"></path><rect width="8.06" height="12.15" x="-4.03" y="-6.08" fill="none" rx="0" ry="0" transform="translate(234.8 462.9)"></rect><path fill="#d5d5d5" d="M240.565 468.48h1.84v-12.15h-1.84Z"></path><rect width="1.84" height="12.15" x="-.92" y="-6.08" fill="none" rx="0" ry="0" transform="translate(241.99 462.9)"></rect><path fill="#d5d5d5" d="M249.345 468.55q2.64 0 3.67-1 1.03-1 1.03-2.45 0-1.54-.95-2.17-.95-.63-3.23-1.19-1.64-.41-2.56-.86-.93-.45-.93-1.5 0-.83.76-1.36.76-.52 2.16-.52 1.39 0 2.14.61.76.61.76 2.62h1.84q0-2.3-1.03-3.4t-3.69-1.1q-2.61 0-3.66.98-1.06.98-1.06 2.37 0 1.52.96 2.19.96.68 3.18 1.23 1.67.39 2.58.83.91.44.91 1.53 0 .89-.74 1.4-.75.52-2.16.52-1.42 0-2.15-.62-.74-.62-.74-2.69h-1.85q0 2.43 1.03 3.5 1.02 1.08 3.73 1.08"></path><rect width="9.46" height="12.32" x="-4.73" y="-6.16" fill="none" rx="0" ry="0" transform="translate(249.81 462.89)"></rect><path fill="#d5d5d5" d="M264.105 468.59q2.49 0 3.3-1.13.82-1.12.82-3.27 0-2.12-.76-3.05-.75-.93-2.56-.93-1.67 0-2.77.83-1.09.84-1.13 1.83l.9.43q.05-.82.69-1.39.64-.58 1.69-.58 1.07 0 1.58.55.5.55.5 2.4 0 1.79-.5 2.43-.51.64-1.67.64-1.14 0-1.71-.76-.57-.76-.57-3.47 0-3.82.64-4.74.64-.92 1.75-.92 1.01 0 1.44.59.43.59.45 1.52h1.83q0-1.19-.73-2.26-.73-1.07-2.99-1.07-2.46 0-3.34 1.47-.88 1.46-.88 5.22 0 3.03.79 4.34.79 1.32 3.23 1.32"></path><rect width="8.14" height="12.35" x="-4.07" y="-6.17" fill="none" rx="0" ry="0" transform="translate(264.65 462.92)"></rect><path fill="#d5d5d5" d="M273.865 468.6q2.49 0 3.31-.94.81-.94.81-2.64 0-1.25-.66-1.92-.67-.67-2.05-.71 1.37-.05 2.04-.75.67-.7.67-1.96 0-1.59-.82-2.51-.82-.93-3.3-.93-2.38 0-3.26 1.06-.88 1.07-.88 3.33h1.82q0-2.01.59-2.57.59-.57 1.74-.57 1.17 0 1.73.53.56.52.56 1.94 0 .99-.58 1.41-.59.43-2.15.47v1.17q1.56.02 2.15.41.58.4.58 1.41 0 1.47-.54 1.99-.55.52-1.75.52t-1.76-.54q-.57-.54-.57-2.36h-1.82q0 2.12.85 3.14t3.29 1.02"></path><rect width="8.26" height="12.36" x="-4.13" y="-6.18" fill="none" rx="0" ry="0" transform="translate(274.36 462.92)"></rect><path fill="#d5d5d5" d="M279.485 468.48h8.05v-1.28h-6.14q0-.69.67-1.46t2.2-1.76q1.48-1.02 2.38-2.09.9-1.06.9-2.6 0-1.27-.81-2.16-.81-.89-3.15-.89-2.36 0-3.24 1.14-.89 1.14-.89 3.14h1.83q0-1.74.59-2.37.59-.63 1.71-.63 1.04 0 1.58.39.54.4.54 1.4 0 1.12-.59 1.9-.59.77-2.21 1.79-1.79 1.06-2.6 2.13-.82 1.08-.82 2.25Z"></path><rect width="8.09" height="12.24" x="-4.04" y="-6.12" fill="none" rx="0" ry="0" transform="translate(284 462.86)"></rect><path fill="#d5d5d5" d="M288.905 464.78h6.04v-1.22h-6.04Z"></path><rect width="6.04" height="1.22" x="-3.02" y="-.61" fill="none" rx="0" ry="0" transform="translate(292.43 464.67)"></rect><path fill="#d5d5d5" d="M300.445 468.6q2.03 0 3-.77.98-.78.98-2.41v-6q0-1.62-.98-2.4-.98-.78-3-.78-2.04 0-3.01.77-.98.78-.98 2.41v6q0 1.63.98 2.41.98.77 3.01.77m0-1.27q-1.15 0-1.65-.49-.51-.49-.51-1.51v-5.82q0-1.02.5-1.51.5-.48 1.66-.48 1.13 0 1.64.49t.51 1.5v5.82q0 1.01-.51 1.5-.51.5-1.64.5"></path><rect width="7.97" height="12.36" x="-3.98" y="-6.18" fill="none" rx="0" ry="0" transform="translate(300.94 462.92)"></rect><path fill="#d5d5d5" d="M305.885 468.48h8.06v-1.28h-6.14q0-.69.67-1.46.66-.77 2.2-1.76 1.48-1.02 2.38-2.09.9-1.06.9-2.6 0-1.27-.81-2.16-.81-.89-3.15-.89-2.36 0-3.25 1.14-.88 1.14-.88 3.14h1.82q0-1.74.6-2.37.59-.63 1.71-.63 1.03 0 1.58.39.54.4.54 1.4 0 1.12-.59 1.9-.6.77-2.22 1.79-1.78 1.06-2.6 2.13-.82 1.08-.82 2.25Z"></path><rect width="8.09" height="12.24" x="-4.04" y="-6.12" fill="none" rx="0" ry="0" transform="translate(310.41 462.86)"></rect><path fill="#d5d5d5" d="M319.785 470.51h1.51v-14.83h-1.51Z"></path><rect width="1.51" height="14.83" x="-.76" y="-7.42" fill="none" rx="0" ry="0" transform="translate(321.04 463.6)"></rect><path fill="#d5d5d5" d="M331.885 468.55q2.65 0 3.68-1 1.03-1 1.03-2.45 0-1.54-.95-2.17-.95-.63-3.23-1.19-1.64-.41-2.56-.86-.93-.45-.93-1.5 0-.83.76-1.36.75-.52 2.16-.52 1.38 0 2.14.61.76.61.76 2.62h1.84q0-2.3-1.03-3.4t-3.69-1.1q-2.61 0-3.67.98-1.05.98-1.05 2.37 0 1.52.96 2.19.96.68 3.18 1.23 1.67.39 2.58.83.91.44.91 1.53 0 .89-.74 1.4-.75.52-2.16.52-1.42 0-2.16-.62-.73-.62-.73-2.69h-1.85q0 2.43 1.02 3.5 1.02 1.08 3.73 1.08"></path><rect width="9.46" height="12.32" x="-4.73" y="-6.16" fill="none" rx="0" ry="0" transform="translate(332.37 462.89)"></rect><path fill="#d5d5d5" d="M338.445 472.46h1.81v-12.83l-.38-1.82h-1.43Zm5.22-3.91q1.91 0 2.86-1.36.94-1.37.94-4.07 0-2.71-.94-4.06-.95-1.35-2.86-1.35-1.75 0-2.97.88-1.23.88-1.23 1.83l.79.96q0-.93.83-1.66.83-.74 1.96-.74 1.21 0 1.9.89.69.9.69 3.26 0 2.38-.69 3.26-.69.89-1.9.89-1.13 0-1.96-.73-.83-.74-.83-1.68l-.79.98q0 .95 1.23 1.82 1.22.88 2.97.88"></path><rect width="9.02" height="14.75" x="-4.51" y="-7.38" fill="none" rx="0" ry="0" transform="translate(343.45 465.58)"></rect><path fill="#d5d5d5" d="M355.605 462.78h1.82q0-2.64-.71-3.85t-2.52-1.21q-1.77 0-2.81.97-1.05.96-1.05 2.33l.71.51q0-.98.66-1.76.67-.78 1.83-.78 1.02 0 1.54.8.53.8.53 2.99m-6.37 5.7h1.81v-8.61l-.38-2.06h-1.43Z"></path><rect width="8.19" height="10.76" x="-4.09" y="-5.38" fill="none" rx="0" ry="0" transform="translate(353.83 463.6)"></rect><path fill="#d5d5d5" d="M359.655 468.48h1.83V457.8h-1.83Zm0-13.59v1.61h1.83v-1.61Z"></path><rect width="1.83" height="13.59" x="-.92" y="-6.79" fill="none" rx="0" ry="0" transform="translate(361.07 462.19)"></rect><path fill="#d5d5d5" d="M363.795 468.48h1.82v-8.61l-.39-2.06h-1.43Zm6.69 0h1.81v-6.1q0-2.18-.77-3.43-.77-1.24-2.62-1.24-1.86 0-3.05 1.16-1.18 1.16-1.18 2.47l.88.56q0-1.26.79-2.09.78-.83 1.9-.83 1.13 0 1.68.78.56.77.56 2.63Z"></path><rect width="8.5" height="10.77" x="-4.25" y="-5.38" fill="none" rx="0" ry="0" transform="translate(368.55 463.6)"></rect><path fill="#d5d5d5" d="M378.455 472.65q1.39 0 2.34-.4t1.57-1.38q.62-.99.62-2.7v-10.36h-1.36l-.47 2.18v8.35q0 1.85-.72 2.5-.72.64-1.92.64-.73 0-1.29-.23-.56-.24-.88-.75-.32-.51-.38-1.36h-1.79q.14 1.94 1.33 2.73 1.19.78 2.95.78m-.66-4.1q1.75 0 2.95-.86 1.21-.87 1.21-1.84l-.8-.98q0 .94-.81 1.67-.82.74-1.95.74-1.21 0-1.91-.88-.7-.87-.7-3.27 0-2.39.7-3.27.7-.88 1.91-.88 1.13 0 1.95.74.81.73.81 1.66l.78-.92q0-.95-1.2-1.85-1.21-.9-2.96-.9-1.91 0-2.87 1.35-.96 1.34-.96 4.06 0 2.73.97 4.08t2.88 1.35"></path><rect width="9.04" height="14.94" x="-4.52" y="-7.47" fill="none" rx="0" ry="0" transform="translate(378.96 465.68)"></rect><path fill="#d5d5d5" d="M389.315 468.48h8.06v-1.28h-6.14q0-.69.67-1.46.66-.77 2.2-1.76 1.48-1.02 2.38-2.09.9-1.06.9-2.6 0-1.27-.81-2.16-.81-.89-3.15-.89-2.36 0-3.25 1.14-.88 1.14-.88 3.14h1.82q0-1.74.6-2.37.59-.63 1.71-.63 1.03 0 1.58.39.54.4.54 1.4 0 1.12-.59 1.9-.6.77-2.22 1.79-1.78 1.06-2.6 2.13-.82 1.08-.82 2.25Z"></path><rect width="8.09" height="12.24" x="-4.04" y="-6.12" fill="none" rx="0" ry="0" transform="translate(393.84 462.86)"></rect><path fill="#d5d5d5" d="M402.735 468.6q2.04 0 3.01-.77.97-.78.97-2.41v-6q0-1.62-.98-2.4-.97-.78-3-.78-2.03 0-3.01.77-.98.78-.98 2.41v6q0 1.63.99 2.41.98.77 3 .77m0-1.27q-1.14 0-1.65-.49t-.51-1.51v-5.82q0-1.02.5-1.51.5-.48 1.66-.48 1.14 0 1.64.49.51.49.51 1.5v5.82q0 1.01-.51 1.5-.5.5-1.64.5"></path><rect width="7.97" height="12.36" x="-3.98" y="-6.18" fill="none" rx="0" ry="0" transform="translate(403.23 462.92)"></rect><path fill="#d5d5d5" d="M408.185 468.48h8.05v-1.28h-6.14q0-.69.67-1.46t2.2-1.76q1.48-1.02 2.38-2.09.9-1.06.9-2.6 0-1.27-.81-2.16-.81-.89-3.15-.89-2.36 0-3.24 1.14-.89 1.14-.89 3.14h1.83q0-1.74.59-2.37.59-.63 1.71-.63 1.04 0 1.58.39.54.4.54 1.4 0 1.12-.59 1.9-.59.77-2.21 1.79-1.79 1.06-2.6 2.13-.82 1.08-.82 2.25Z"></path><rect width="8.09" height="12.24" x="-4.04" y="-6.12" fill="none" rx="0" ry="0" transform="translate(412.7 462.86)"></rect><path fill="#d5d5d5" d="M421.485 468.59q2.32 0 3.24-1.04.92-1.04.92-3.37 0-2.14-.79-3.07-.78-.94-2.48-.94-1.6 0-2.78.77-1.17.77-1.26 2.21l1.05.04q.02-.85.66-1.36.64-.51 1.66-.51.98 0 1.53.55.55.54.55 2.33 0 1.97-.57 2.56-.57.59-1.65.59-1.09 0-1.63-.54-.54-.54-.55-1.97h-1.82q0 1.73.88 2.74.87 1.01 3.04 1.01m-3.92-5.4h1.82v-5.59h6v-1.27h-7.82Z"></path><rect width="8.08" height="12.26" x="-4.04" y="-6.13" fill="none" rx="0" ry="0" transform="translate(422.1 462.96)"></rect><path fill="#d5d5d5" d="m281.922 156.9 143.53-5.172c-8.922-14.747-11.153-27.648-28.206-29.872-25.523-3.319-51.046-6.648-76.572-9.978l-148.55-19.347c4.442 7.167 73.723 65.665 109.798 64.37M105.597 4.35c15.503 25.622 93.967 81.458 116.344 84.332 61.185 7.877 122.36 15.747 183.542 23.613-11.98-19.796-14.758-33.011-36.408-38.692l-94.327-24.795C218.364 33.993 161.981 19.172 105.597 4.35m222.81 199.2 110.299-23.513c-7.16-11.814-7.182-18.92-20.573-18.32-21.742.963-43.476 1.938-65.214 2.902-40.048 1.786-80.095 3.58-120.14 5.359 4.502 4.823 66.79 39.716 95.627 33.572m86.76 84.756c20.213-13.13 25.64-27.26 37.138-48.747 12.89-24.093 4.438-27.694-9.96-51.533-1.472-2.429-20.625.82-22.782 3.192-2.63 2.888-.876 19.26-1.038 22.935zm-4.703-94.5c-13.398 2.856-30.377.674-33.795 14.93l-14.546 60.766c32.644-7.8 47.204-46.975 48.341-75.696m-41.251 9.44c-32.298 6.896-31.62 16.28-45.47 46.534 21.96-2.083 42.451-25.985 45.47-46.533"></path></svg></svg>