<svg xmlns="http://www.w3.org/2000/svg" version="1.1" xmlns:xlink="http://www.w3.org/1999/xlink" width="1500" height="1500" viewBox="0 0 1500 1500"><rect width="1500" height="1500" x="0" y="0" id="background" stroke="transparent" fill="#ffffff"></rect><svg xml:space="preserve" width="1000" height="1000" data-version="2" data-id="lg_IgbePJNvzgtRXuVrnZ" viewBox="0 0 546 141" x="250" y="250"><rect width="100%" height="100%" fill="transparent"></rect><path d="M180.94 36.975q-3.01 0-5.35-1.33t-3.66-3.68q-1.33-2.36-1.33-5.44V4.675h4.04v21.71q0 3.15 1.8 5.07 1.81 1.91 4.57 1.91 2.73 0 4.55-1.9 1.83-1.89 1.83-4.94V4.675h3.89v21.71q0 3.12-1.33 5.51-1.33 2.39-3.64 3.73-2.32 1.35-5.37 1.35"></path><rect width="20.68" height="32.3" x="-10.34" y="-16.15" fill="none" rx="0" ry="0" transform="translate(181.44 21.32)"></rect><path d="m225.71 37.615-22.32-23.91v22.85h-3.82V3.615l22.31 23.9V4.675h3.83Z"></path><rect width="26.14" height="34" x="-13.07" y="-17" fill="none" rx="0" ry="0" transform="translate(213.14 21.11)"></rect><path d="M234.63 36.555V4.675h10.45q4.32 0 7.53 1.42 3.2 1.41 5.29 3.75t3.12 5.15q1.02 2.82 1.02 5.62 0 2.8-1.02 5.61-1.03 2.82-3.12 5.15-2.09 2.34-5.29 3.76-3.21 1.42-7.53 1.42Zm4.04-3.62h5.98q3.69 0 6.2-1.15 2.52-1.15 4.07-3.01 1.56-1.86 2.25-4.02.69-2.16.69-4.14 0-1.99-.69-4.15t-2.25-4.02q-1.55-1.85-4.07-3.01-2.51-1.15-6.2-1.15h-5.98Z"></path><rect width="27.41" height="31.88" x="-13.71" y="-15.94" fill="none" rx="0" ry="0" transform="translate(248.84 21.11)"></rect><path d="M268.63 36.555V4.675h15.73v3.61h-11.69v6.8h9.21v3.62h-9.21v14.23h11.69v3.62Z"></path><rect width="15.73" height="31.88" x="-7.87" y="-15.94" fill="none" rx="0" ry="0" transform="translate(277 21.11)"></rect><path d="M291.05 36.555V4.675h8q3.01 0 5.17 1.2 2.17 1.21 3.35 3.17 1.19 1.97 1.19 4.31 0 2.62-1.49 4.71t-4.07 3.08l10.69 15.41h-4.71l-10.13-14.67h-3.96v14.67Zm4.04-18.07h3.96q2.06 0 3.35-.76t1.91-1.95q.62-1.18.62-2.42 0-2.23-1.61-3.65t-4.27-1.42h-3.96Z"></path><rect width="22.84" height="31.88" x="-11.42" y="-15.94" fill="none" rx="0" ry="0" transform="translate(302.97 21.11)"></rect><path d="M325.44 36.975q-2.83 0-5.12-1.13-2.28-1.14-3.63-2.77l1.17-4.88q.99 1.98 2.98 3.57 1.98 1.6 4.74 1.6 2.52 0 4.16-1.6 1.65-1.59 1.65-3.93 0-1.7-.82-2.79-.81-1.1-1.84-1.74-1.02-.64-1.63-.92l-3.89-1.98q-.92-.5-2.29-1.39-1.36-.88-2.39-2.44-1.02-1.56-1.02-4.04 0-2.41 1.11-4.28 1.12-1.88 3.12-2.94t4.58-1.06q2.55 0 4.5.9 1.95.9 3.05 1.86l-1.17 4.89q-.89-1.49-2.62-2.8-1.74-1.31-3.93-1.31-2.13 0-3.4 1.25-1.28 1.26-1.28 3.1 0 1.42.66 2.34.65.92 1.49 1.45.83.53 1.36.82l3.97 1.98q.7.36 1.78.99 1.08.64 2.15 1.69 1.06 1.04 1.77 2.55.71 1.5.71 3.63 0 2.72-1.3 4.85-1.29 2.12-3.52 3.33-2.23 1.2-5.1 1.2"></path><rect width="18.67" height="32.72" x="-9.34" y="-16.36" fill="none" rx="0" ry="0" transform="translate(326.52 21.11)"></rect><path d="M338.12 8.285v-3.61h21.04v3.61h-8.5v28.27h-4.04V8.285Z"></path><rect width="21.04" height="31.88" x="-10.52" y="-15.94" fill="none" rx="0" ry="0" transform="translate(349.14 21.11)"></rect><path d="m357.24 36.555 13.5-32.94h.07l13.49 32.94h-4.28l-3.76-9.46h-11.15l-3.79 9.46Zm9.21-12.83h8.47l-2.52-6.3q-.46-1.2-.88-2.37-.43-1.17-.85-2.8-.43 1.63-.82 2.78-.39 1.15-.88 2.39Z"></path><rect width="27.06" height="32.94" x="-13.53" y="-16.47" fill="none" rx="0" ry="0" transform="translate(371.27 20.59)"></rect><path d="m415.54 37.615-22.31-23.91v22.85h-3.83V3.615l22.31 23.9V4.675h3.83Z"></path><rect width="26.14" height="34" x="-13.07" y="-17" fill="none" rx="0" ry="0" transform="translate(402.97 21.11)"></rect><path d="M424.46 36.555V4.675h10.45q4.32 0 7.53 1.42 3.2 1.41 5.29 3.75t3.12 5.15q1.03 2.82 1.03 5.62 0 2.8-1.03 5.61-1.03 2.82-3.12 5.15-2.09 2.34-5.29 3.76-3.21 1.42-7.53 1.42Zm4.04-3.62h5.99q3.68 0 6.2-1.15 2.51-1.15 4.07-3.01 1.56-1.86 2.25-4.02.69-2.16.69-4.14 0-1.99-.69-4.15t-2.25-4.02q-1.56-1.85-4.07-3.01-2.52-1.15-6.2-1.15h-5.99Z"></path><rect width="27.42" height="31.88" x="-13.71" y="-15.94" fill="none" rx="0" ry="0" transform="translate(438.67 21.11)"></rect><path d="M458.89 36.555V4.675h4.04v31.88Z"></path><rect width="4.04" height="31.88" x="-2.02" y="-15.94" fill="none" rx="0" ry="0" transform="translate(461.41 21.11)"></rect><path d="m498.41 37.615-22.31-23.91v22.85h-3.82V3.615l22.31 23.9V4.675h3.82Z"></path><rect width="26.13" height="34" x="-13.06" y="-17" fill="none" rx="0" ry="0" transform="translate(485.85 21.11)"></rect><path d="M521.61 37.185q-3.47 0-6.48-1.29-3.01-1.29-5.29-3.58-2.29-2.28-3.56-5.27-1.28-3-1.28-6.43 0-3.44 1.29-6.43 1.3-2.99 3.58-5.28 2.29-2.28 5.3-3.57 3.01-1.3 6.48-1.3 3.4 0 6.37 1.26 2.98 1.26 5.24 3.45l-1.16 4.89q-1.63-2.62-4.38-4.2-2.74-1.57-6.07-1.57-3.51 0-6.32 1.72-2.82 1.71-4.48 4.6-1.67 2.89-1.67 6.43 0 3.47 1.65 6.37 1.64 2.91 4.46 4.64 2.82 1.74 6.32 1.74 1.99 0 3.77-.48 1.79-.48 3.28-1.36v-8.36h-8.78v-3.61h12.68v14.02q-2.16 1.81-5.02 2.71-2.85.9-5.93.9"></path><rect width="28.26" height="33.15" x="-14.13" y="-16.57" fill="none" rx="0" ry="0" transform="translate(519.63 21.11)"></rect><path d="M171.24 83.805v-31.87h10.44q4.32 0 7.53 1.41 3.2 1.42 5.29 3.76t3.12 5.15q1.03 2.82 1.03 5.61 0 2.8-1.03 5.62-1.03 2.81-3.12 5.15-2.09 2.34-5.29 3.76-3.21 1.41-7.53 1.41Zm4.03-3.61h5.99q3.68 0 6.2-1.15 2.51-1.15 4.07-3.01 1.56-1.86 2.25-4.02.69-2.16.69-4.15 0-1.98-.69-4.14-.69-2.16-2.25-4.02-1.56-1.86-4.07-3.01-2.52-1.15-6.2-1.15h-5.99Z"></path><rect width="27.41" height="31.87" x="-13.71" y="-15.94" fill="none" rx="0" ry="0" transform="translate(185.44 68.37)"></rect><path d="M205.66 83.805v-31.87h4.04v31.87Z"></path><rect width="4.04" height="31.87" x="-2.02" y="-15.94" fill="none" rx="0" ry="0" transform="translate(208.18 68.37)"></rect><path d="M225.92 84.235q-2.83 0-5.12-1.14-2.28-1.13-3.63-2.76l1.17-4.89q.99 1.99 2.97 3.58 1.99 1.59 4.75 1.59 2.51 0 4.16-1.59 1.65-1.59 1.65-3.93 0-1.7-.82-2.8-.81-1.1-1.84-1.73-1.02-.64-1.63-.92l-3.89-1.99q-.92-.49-2.29-1.38-1.36-.88-2.39-2.44-1.02-1.56-1.02-4.04 0-2.41 1.11-4.29 1.12-1.87 3.12-2.94 2-1.06 4.58-1.06 2.55 0 4.5.91 1.95.9 3.05 1.85l-1.17 4.89q-.89-1.49-2.62-2.8-1.74-1.31-3.93-1.31-2.13 0-3.4 1.26-1.28 1.26-1.28 3.1 0 1.42.66 2.34.65.92 1.48 1.45.84.53 1.37.81l3.96 1.99q.71.35 1.79.99t2.15 1.68q1.06 1.05 1.77 2.55.71 1.51.71 3.63 0 2.73-1.3 4.85-1.29 2.13-3.52 3.33-2.23 1.21-5.1 1.21"></path><rect width="18.67" height="32.73" x="-9.34" y="-16.36" fill="none" rx="0" ry="0" transform="translate(227 68.37)"></rect><path d="M242.42 83.805v-31.87h7.9q3.15 0 5.33.95 2.18.96 3.52 2.5 1.35 1.54 1.97 3.35.62 1.8.62 3.54 0 1.7-.6 3.51-.6 1.8-1.95 3.36-1.35 1.56-3.54 2.51-2.2.96-5.35.96h-3.86v11.19Zm4.04-14.8h3.65q2.87 0 4.53-1.01 1.67-1.01 2.37-2.55.71-1.54.71-3.17 0-1.56-.69-3.12t-2.34-2.58q-1.64-1.03-4.58-1.03h-3.65Z"></path><rect width="19.34" height="31.87" x="-9.67" y="-15.94" fill="none" rx="0" ry="0" transform="translate(252.59 68.37)"></rect><path d="m260.91 83.805 13.49-32.94h.07l13.5 32.94h-4.29l-3.75-9.45h-11.16l-3.79 9.45Zm9.21-12.82h8.46l-2.51-6.3q-.46-1.21-.89-2.38-.42-1.16-.85-2.79-.42 1.63-.81 2.78-.39 1.15-.89 2.39Z"></path><rect width="27.06" height="32.94" x="-13.53" y="-16.47" fill="none" rx="0" ry="0" transform="translate(274.94 67.83)"></rect><path d="M293.17 83.805v-31.87h8.01q3.01 0 5.17 1.2 2.16 1.21 3.35 3.17 1.18 1.97 1.18 4.3 0 2.63-1.48 4.71-1.49 2.09-4.08 3.09l10.7 15.4h-4.71l-10.13-14.66h-3.97v14.66Zm4.04-18.06h3.97q2.05 0 3.35-.76 1.29-.76 1.91-1.95.62-1.19.62-2.43 0-2.23-1.61-3.64-1.61-1.42-4.27-1.42h-3.97Z"></path><rect width="22.85" height="31.87" x="-11.43" y="-15.94" fill="none" rx="0" ry="0" transform="translate(305.1 68.37)"></rect><path d="M321.12 83.805v-31.87h4.04v31.87Z"></path><rect width="4.04" height="31.87" x="-2.02" y="-15.94" fill="none" rx="0" ry="0" transform="translate(323.64 68.37)"></rect><path d="M331.74 55.545v-3.61h21.04v3.61h-8.5v28.26h-4.04v-28.26Z"></path><rect width="21.04" height="31.87" x="-10.52" y="-15.94" fill="none" rx="0" ry="0" transform="translate(342.76 68.37)"></rect><path d="M364.68 83.805v-15.4l-9.56-16.47h4.67l5.25 9.28q.49.88.93 1.75.45.87.91 2 .46-1.13.92-2 .46-.87.95-1.75l5.28-9.28h4.25l-9.56 16.47v15.4Z"></path><rect width="23.16" height="31.87" x="-11.58" y="-15.94" fill="none" rx="0" ry="0" transform="translate(367.2 68.37)"></rect><path fill="#696969" d="M33.42 88.335q-8.09 0-14.37-3.57-6.28-3.56-9.84-9.89-3.57-6.33-3.57-14.6v-58.7h10.84v58.32q0 8.46 4.86 13.6 4.85 5.14 12.27 5.14 7.32 0 12.22-5.09t4.9-13.27v-58.7H61.2v58.32q0 8.37-3.57 14.79t-9.8 10.04q-6.23 3.61-14.41 3.61" paint-order="stroke"></path><rect width="55.56" height="86.76" x="-27.78" y="-43.38" fill="none" rx="0" ry="0" transform="translate(33.92 45.45)"></rect><path fill="#696969" d="M83.46 87.195V1.575h28.07q11.6 0 20.21 3.8 8.61 3.81 14.23 10.09 5.61 6.27 8.37 13.84 2.76 7.56 2.76 15.08 0 7.51-2.76 15.08-2.76 7.56-8.37 13.84-5.62 6.28-14.23 10.08-8.61 3.81-20.21 3.81Zm10.85-9.7h16.08q9.89 0 16.64-3.1 6.76-3.09 10.95-8.08 4.18-5 6.04-10.8 1.85-5.8 1.85-11.13 0-5.33-1.85-11.13-1.86-5.81-6.04-10.8-4.19-5-10.95-8.09-6.75-3.09-16.64-3.09H94.31Z" paint-order="stroke"></path><rect width="73.64" height="85.62" x="-36.82" y="-42.81" fill="none" rx="0" ry="0" transform="translate(120.78 44.88)"></rect><path d="M56.93 129.555q-.36.25-1.26.68-.9.43-2.48.77-1.58.33-3.97.33-3.21 0-5.53-1.06-2.32-1.06-3.57-3.44-1.24-2.38-1.24-6.31 0-5.23 2.68-8.06 2.68-2.84 7.47-2.84 2.29 0 3.65.44 1.36.44 2.06 1.03.71.59.98 1.02.11.17.15.29.04.12.06.39.04.35.02 1.02-.02.68-.11 1.19-.06.32-.19.43-.06.05-.2.1-.15.04-.44.04-.47 0-1.09-.03-.63-.04-.92-.09-.35-.05-.51-.16-.15-.11-.33-.35-.17-.23-.48-.55-.31-.31-.93-.56-.62-.25-1.72-.25-2.42 0-3.79 1.75-1.38 1.75-1.38 5.03 0 3.44 1.43 5.23 1.43 1.79 4.11 1.79 1.34 0 1.98-.2.64-.2.81-.3v-4.56q0-.42.15-.64.66-.97 1.85-2.04.22-.17.38-.17.17 0 .36.17.65.56 1.09 1.07.44.5.76.97.15.23.15.64Z"></path><rect width="18.05" height="21.71" x="-9.03" y="-10.86" fill="none" rx="0" ry="0" transform="translate(48.4 120.98)"></rect><path d="M65.14 118.775h.06q1.1-3.05 3.96-3.05.36 0 .6.03.23.04.32.07.22.07.22.34v3.53q0 .45-.53.25-.17-.08-.5-.16-.33-.08-.92-.08-1.51 0-2.36 1.11-.85 1.1-.85 3.01v6.39q0 .44-.18.6-.18.17-.62.17h-3.02q-.44 0-.62-.17-.19-.16-.19-.6v-12.28q0-.35.15-.54.31-.41.74-.84.43-.42 1.06-.9.12-.09.24-.12.11-.03.2-.03.21 0 .41.15 1.22.95 1.7 1.62.13.18.13.41Z"></path><rect width="9.79" height="15.48" x="-4.89" y="-7.74" fill="none" rx="0" ry="0" transform="translate(65.9 123.75)"></rect><path d="M79.67 131.355q-3.69 0-5.84-1.96-2.15-1.97-2.15-5.85 0-3.98 2.23-5.95 2.23-1.97 5.97-1.97 3.6 0 5.77 1.94 2.17 1.94 2.17 5.72 0 3.94-2.17 6-2.17 2.07-5.98 2.07m.15-3.55q1.61 0 2.43-1 .82-1 .82-3.44 0-2.31-.82-3.25-.83-.95-2.46-.95-1.57 0-2.47 1.02-.9 1.02-.9 3.3 0 2.39.86 3.36.86.96 2.54.96"></path><rect width="16.14" height="15.73" x="-8.07" y="-7.87" fill="none" rx="0" ry="0" transform="translate(80.25 123.99)"></rect><path d="M96.2 131.355q-5.22 0-5.22-6.32l-.01-7.44q0-.35.15-.54.61-.8 1.8-1.74.2-.15.36-.15.19 0 .37.15.63.48 1.06.91.43.42.74.83.15.19.15.54v7.03q0 3.18 2.52 3.18 1.24 0 1.99-.87t.75-2.36v-6.98q0-.35.14-.54.62-.8 1.8-1.74.21-.15.37-.15.19 0 .37.15.63.48 1.06.91.43.42.74.83.15.19.15.54v12.72q0 .28-.2.47-.19.2-.48.2h-2.2q-.23 0-.41-.06-.19-.07-.35-.26l-.91-1.17h-.1q-.23.33-.72.77t-1.42.77q-.93.32-2.5.32"></path><rect width="14.52" height="16.19" x="-7.26" y="-8.1" fill="none" rx="0" ry="0" transform="translate(98.73 123.76)"></rect><path d="M118.77 115.625q2.14 0 3.52.96 1.39.95 2.07 2.63.68 1.68.68 3.85 0 2.34-.8 4.22-.8 1.87-2.35 2.97t-3.85 1.1q-1.19 0-1.96-.27t-1.23-.65q-.46-.37-.72-.68h-.06v6.24q0 .35-.15.54-.61.81-1.8 1.75-.2.14-.37.14-.17 0-.36-.14-.63-.49-1.06-.91-.44-.43-.74-.84-.15-.19-.15-.54v-18.06q0-.35.15-.54.3-.41.74-.84.43-.42 1.06-.9.19-.15.39-.15.19 0 .4.15.61.48 1.05.92.44.44.78.91h.07q.25-.31.77-.75.51-.44 1.45-.78.95-.33 2.47-.33m-1.8 11.99q1.58 0 2.45-1.1.87-1.11.87-3.2 0-3.96-3.25-3.96-1.37 0-2.03.57-.66.56-.94 1.19v3.18q0 1.42.73 2.37.73.95 2.17.95"></path><rect width="15.6" height="22.92" x="-7.8" y="-11.46" fill="none" rx="0" ry="0" transform="translate(117.74 127.47)"></rect><path d="M144.73 130.215q0 .44-.18.6-.19.17-.63.17h-3.01q-.44 0-.63-.17-.18-.16-.18-.6v-15.34l-2.04 1.02q-.29.17-.52.14-.46-.08-.99-.24-.54-.16-1.18-.44-.22-.13-.27-.23-.05-.1 0-.34.34-1.29.81-2.11.15-.2.42-.34l5.6-2.82h2.8Z"></path><rect width="9.67" height="21.47" x="-4.83" y="-10.73" fill="none" rx="0" ry="0" transform="translate(140.4 120.75)"></rect><path d="M162.89 137.255q0 .44-.14.61-.15.17-.5.17h-2.4q-.36 0-.5-.17-.15-.17-.15-.61v-28.45q0-.44.15-.6.14-.17.5-.17h2.4q.35 0 .5.17.14.16.14.6Z"></path><rect width="3.69" height="30" x="-1.84" y="-15" fill="none" rx="0" ry="0" transform="translate(161.54 123.53)"></rect><path d="M182.24 131.335q-1.86 0-3.08-.33-1.22-.34-1.96-.85-.74-.5-1.14-1-.13-.19-.23-.37-.11-.17-.15-.39-.06-.29-.12-.77-.06-.48-.01-1.11.01-.26.1-.36.1-.12.34-.18.42-.1 1.1-.18.69-.08.98-.08.31 0 .5.12.19.11.45.39.29.31 1.01.78.72.48 2.21.48 1.44 0 2.17-.6t.73-1.67q0-.57-.34-1.08-.35-.5-1.25-1.01-.91-.5-2.6-1.06-2.78-.94-4.01-2.33-1.23-1.39-1.23-3.87 0-2.05 1-3.42.99-1.38 2.75-2.08 1.76-.71 4.06-.71 1.77 0 2.93.42 1.17.42 1.81.94.65.52.84.84.12.19.15.29.04.09.05.25.05.46.03 1.01-.01.56-.1 1.26-.04.24-.16.33-.1.07-.32.07-1.42.03-2.2-.15-.31-.07-.41-.14-.1-.08-.26-.24-.24-.28-.74-.65-.51-.37-1.62-.37-1.54 0-2.19.69-.64.7-.64 1.56 0 1.03.95 1.61.95.57 3.01 1.31 1.71.6 2.94 1.3 1.23.7 1.88 1.8.65 1.1.65 2.9 0 2.24-1.03 3.72t-2.81 2.21q-1.78.72-4.04.72"></path><rect width="14.61" height="21.68" x="-7.3" y="-10.84" fill="none" rx="0" ry="0" transform="translate(183.32 121)"></rect><path d="M197.4 130.985q-1.5 0-2.29-.38-.78-.38-1.05-1.24-.27-.87-.27-2.3v-13.16q0-1.46.27-2.32.27-.86 1.05-1.23.79-.37 2.29-.37h6.89q.35 0 .53.11.38.27.79.63.41.37.86.88.15.19.15.31 0 .13-.15.29-.45.52-.86.88-.41.37-.79.63-.21.12-.53.12h-4.1q-.97 0-1.32.41-.35.41-.35 1.41v2.84h5.26q.35 0 .52.11.38.27.79.63.41.37.87.88.15.19.15.31 0 .13-.15.29-.46.52-.87.88-.41.37-.79.63-.2.12-.52.12h-5.26v2.96q0 .98.35 1.4.35.43 1.32.43h4.58q.35 0 .53.12.38.26.79.63.41.36.86.88.15.19.15.3 0 .13-.15.3-.45.51-.86.87-.41.37-.79.63-.21.12-.53.12Z"></path><rect width="13.31" height="21" x="-6.66" y="-10.5" fill="none" rx="0" ry="0" transform="translate(200.94 120.98)"></rect><path d="M214.91 130.215q0 .44-.18.6-.19.17-.63.17h-3.12q-.44 0-.62-.17-.18-.16-.18-.6v-17.89q0-.42.14-.64.66-.97 1.85-2.04.22-.18.38-.18.18 0 .37.18.64.56 1.08 1.06.44.51.76.98.15.23.15.64Z"></path><rect width="4.73" height="21.52" x="-2.37" y="-10.76" fill="none" rx="0" ry="0" transform="translate(213.04 120.72)"></rect><path d="M225.28 131.335q-1.86 0-3.08-.33-1.23-.34-1.97-.85-.74-.5-1.13-1-.13-.19-.24-.37-.1-.17-.14-.39-.06-.29-.12-.77-.06-.48-.01-1.11.01-.26.1-.36.1-.12.34-.18.42-.1 1.1-.18.68-.08.98-.08.3 0 .49.12.19.11.46.39.29.31 1.01.78.72.48 2.21.48 1.44 0 2.17-.6t.73-1.67q0-.57-.34-1.08-.35-.5-1.26-1.01-.9-.5-2.59-1.06-2.78-.94-4.01-2.33-1.23-1.39-1.23-3.87 0-2.05.99-3.42 1-1.38 2.76-2.08 1.75-.71 4.05-.71 1.78 0 2.94.42 1.17.42 1.81.94.65.52.84.84.11.19.15.29.04.09.05.25.04.46.03 1.01-.01.56-.1 1.26-.05.24-.16.33-.11.07-.33.07-1.42.03-2.19-.15-.31-.07-.41-.14-.11-.08-.27-.24-.23-.28-.74-.65-.5-.37-1.62-.37-1.53 0-2.18.69-.64.7-.64 1.56 0 1.03.95 1.61.95.57 3 1.31 1.72.6 2.95 1.3 1.23.7 1.88 1.8.65 1.1.65 2.9 0 2.24-1.03 3.72t-2.81 2.21q-1.78.72-4.04.72"></path><rect width="14.61" height="21.68" x="-7.3" y="-10.84" fill="none" rx="0" ry="0" transform="translate(226.36 121)"></rect><path d="M251.75 131.355q-2.4 0-4.1-.95-1.7-.96-2.6-3.21-.9-2.26-.9-6.15 0-5.35 2.17-8.38 2.18-3.04 6.82-3.04 1.69 0 2.51.25.82.25 1.11.44.29.19.5.53.16.28.34.73.18.44.32.91.08.31.08.54 0 .28-.45.5-.37.18-1.06.32-.7.14-1.03.14-.19 0-.33-.03-.14-.02-.33-.14-.24-.14-.66-.32-.43-.17-1.17-.17-1.95 0-3.07 1.6-1.11 1.6-1.11 4.18h.09q.75-.7 1.84-1.16 1.1-.46 2.57-.46 2.74 0 4.33 1.5 1.59 1.5 1.59 5.01 0 2.42-.95 4.06-.94 1.63-2.62 2.46-1.68.84-3.89.84m0-3.69q1.26 0 2-.86t.74-2.51q0-1.77-.69-2.58t-2.08-.81q-.88 0-1.48.29t-.94.62q-.33.34-.44.51 0 2.74.74 4.04.74 1.3 2.15 1.3"></path><rect width="15.06" height="21.73" x="-7.53" y="-10.87" fill="none" rx="0" ry="0" transform="translate(252.18 120.99)"></rect><path d="M267.47 131.355q-2.39 0-3.77-.4-1.37-.41-2.02-.76-.44-.22-.22-.72l1.01-2.38q.16-.39.35-.43.19-.04.53.12.59.28 1.58.58.98.3 2.32.3 1.65 0 2.63-.69.97-.69.97-2.05 0-1.41-1.22-2.13-1.22-.73-3.36-.73h-.34q-.35 0-.53-.12-.38-.25-.78-.59-.4-.34-.87-.84-.15-.19-.15-.29 0-.14.15-.3.47-.5.87-.84.4-.34.78-.59.21-.12.53-.12h.19q4.1 0 4.1-2.65 0-2.4-2.97-2.4-1.03 0-1.89.26-.87.26-1.39.53-.34.16-.52.11-.19-.05-.35-.41l-.98-2.24q-.2-.48.22-.73.65-.34 2.07-.78t3.72-.44q1.92 0 3.45.59 1.54.59 2.45 1.74.91 1.16.91 2.89 0 4.12-4.18 5.16v.07q2.14.28 3.48 1.57 1.33 1.29 1.33 3.34 0 2.11-1.05 3.53t-2.88 2.13q-1.83.71-4.17.71"></path><rect width="14.26" height="21.73" x="-7.13" y="-10.87" fill="none" rx="0" ry="0" transform="translate(268.94 120.99)"></rect><path d="M278.5 129.745v-.34q0-1.61.53-2.91.52-1.29 1.36-2.33.85-1.03 1.81-1.83.97-.8 1.85-1.43 1.85-1.31 2.79-2.41.94-1.09.94-2.45 0-2.72-2.98-2.72-1.19 0-2.1.38-.91.38-1.46.76-.33.22-.52.19t-.39-.4l-1.25-2.18q-.26-.45.16-.75.83-.55 2.39-1.12 1.56-.58 4.06-.58 3.21 0 5.01 1.62 1.8 1.61 1.8 4.35 0 1.92-.76 3.31-.76 1.39-1.98 2.46-1.21 1.07-2.6 2.03-1.43.99-2.51 1.95-1.08.97-1.08 1.8h7.58q.36 0 .53.12.38.26.79.63.41.37.87.88.14.19.14.29 0 .13-.14.3-.46.51-.87.87-.41.37-.79.63-.2.12-.53.12h-11.57q-.63 0-.86-.33-.22-.33-.22-.91"></path><rect width="14.98" height="21.36" x="-7.49" y="-10.68" fill="none" rx="0" ry="0" transform="translate(286.49 120.8)"></rect><path d="M296.28 124.745q-.45 0-.45-.45v-2.62q0-.46.45-.46h7.11q.45 0 .45.46v2.62q0 .45-.45.45Z"></path><rect width="8.01" height="3.53" x="-4" y="-1.76" fill="none" rx="0" ry="0" transform="translate(300.33 123.48)"></rect><path d="M315.15 131.355q-3.97 0-5.88-2.64-1.91-2.64-1.91-7.89 0-5.47 2.06-8.33 2.07-2.87 6.14-2.87 3.88 0 5.75 2.69 1.87 2.68 1.87 8.02 0 3.12-.8 5.62-.79 2.5-2.55 3.95-1.77 1.45-4.68 1.45m.14-3.69q1.66 0 2.41-1.82.76-1.82.76-5.36 0-3.55-.74-5.35-.74-1.81-2.37-1.81-1.73 0-2.5 1.86-.78 1.87-.78 5.52 0 3.44.77 5.2.77 1.76 2.45 1.76"></path><rect width="15.82" height="21.73" x="-7.91" y="-10.87" fill="none" rx="0" ry="0" transform="translate(315.77 120.99)"></rect><path d="M325.81 129.745v-.34q0-1.61.53-2.91.53-1.29 1.37-2.33.84-1.03 1.81-1.83.97-.8 1.84-1.43 1.85-1.31 2.79-2.41.95-1.09.95-2.45 0-2.72-2.99-2.72-1.19 0-2.09.38-.91.38-1.47.76-.32.22-.51.19t-.4-.4l-1.24-2.18q-.27-.45.16-.75.82-.55 2.38-1.12 1.56-.58 4.06-.58 3.21 0 5.01 1.62 1.81 1.61 1.81 4.35 0 1.92-.77 3.31-.76 1.39-1.97 2.46-1.22 1.07-2.61 2.03-1.42.99-2.51 1.95-1.08.97-1.08 1.8h7.59q.35 0 .53.12.38.26.79.63.41.37.86.88.15.19.15.29 0 .13-.15.3-.45.51-.86.87-.41.37-.79.63-.21.12-.53.12H326.9q-.63 0-.86-.33-.23-.33-.23-.91"></path><rect width="14.99" height="21.36" x="-7.5" y="-10.68" fill="none" rx="0" ry="0" transform="translate(333.8 120.8)"></rect><path d="M357.2 137.255q0 .44-.14.61-.15.17-.5.17h-2.4q-.35 0-.5-.17-.15-.17-.15-.61v-28.45q0-.44.15-.6.15-.17.5-.17h2.4q.35 0 .5.17.14.16.14.6Z"></path><rect width="3.69" height="30" x="-1.84" y="-15" fill="none" rx="0" ry="0" transform="translate(355.86 123.53)"></rect><path d="M376.55 131.335q-1.86 0-3.08-.33-1.22-.34-1.96-.85-.74-.5-1.14-1-.13-.19-.23-.37-.1-.17-.15-.39-.06-.29-.12-.77-.05-.48-.01-1.11.01-.26.1-.36.11-.12.34-.18.42-.1 1.11-.18.68-.08.97-.08.31 0 .5.12.19.11.45.39.29.31 1.01.78.72.48 2.21.48 1.44 0 2.17-.6t.73-1.67q0-.57-.34-1.08-.34-.5-1.25-1.01-.91-.5-2.59-1.06-2.79-.94-4.02-2.33-1.23-1.39-1.23-3.87 0-2.05 1-3.42.99-1.38 2.75-2.08 1.76-.71 4.06-.71 1.77 0 2.94.42 1.16.42 1.8.94.65.52.84.84.12.19.15.29.04.09.06.25.04.46.02 1.01-.01.56-.1 1.26-.04.24-.16.33-.1.07-.32.07-1.42.03-2.2-.15-.31-.07-.41-.14-.1-.08-.26-.24-.24-.28-.74-.65-.51-.37-1.62-.37-1.54 0-2.18.69-.65.7-.65 1.56 0 1.03.95 1.61.96.57 3.01 1.31 1.71.6 2.94 1.3 1.23.7 1.88 1.8.66 1.1.66 2.9 0 2.24-1.04 3.72-1.03 1.48-2.81 2.21-1.78.72-4.04.72"></path><rect width="14.61" height="21.68" x="-7.3" y="-10.84" fill="none" rx="0" ry="0" transform="translate(377.64 121)"></rect><path d="M397.06 115.625q2.14 0 3.53.96 1.38.95 2.06 2.63.68 1.68.68 3.85 0 2.34-.8 4.22-.79 1.87-2.35 2.97-1.55 1.1-3.85 1.1-1.19 0-1.96-.27-.76-.27-1.23-.65-.46-.37-.72-.68h-.06v6.24q0 .35-.15.54-.61.81-1.8 1.75-.2.14-.36.14-.18 0-.37-.14-.63-.49-1.06-.91-.43-.43-.74-.84-.15-.19-.15-.54v-18.06q0-.35.15-.54.31-.41.74-.84.43-.42 1.06-.9.19-.15.39-.15t.4.15q.62.48 1.06.92.43.44.77.91h.07q.25-.31.77-.75.51-.44 1.45-.78.95-.33 2.47-.33m-1.8 11.99q1.58 0 2.45-1.1.88-1.11.88-3.2 0-3.96-3.26-3.96-1.37 0-2.03.57-.66.56-.94 1.19v3.18q0 1.42.73 2.37.73.95 2.17.95"></path><rect width="15.6" height="22.92" x="-7.8" y="-11.46" fill="none" rx="0" ry="0" transform="translate(396.03 127.47)"></rect><path d="M411.11 118.775h.06q1.1-3.05 3.95-3.05.37 0 .6.03.24.04.33.07.22.07.22.34v3.53q0 .45-.53.25-.18-.08-.51-.16t-.91-.08q-1.51 0-2.36 1.11-.85 1.1-.85 3.01v6.39q0 .44-.18.6-.19.17-.63.17h-3.01q-.44 0-.63-.17-.18-.16-.18-.6v-12.28q0-.35.15-.54.31-.41.74-.84.43-.42 1.06-.9.12-.09.23-.12.12-.03.21-.03.2 0 .41.15 1.21.95 1.7 1.62.13.18.13.41Z"></path><rect width="9.79" height="15.48" x="-4.89" y="-7.74" fill="none" rx="0" ry="0" transform="translate(411.88 123.75)"></rect><path d="M417.78 111.065q0-.19.11-.34.12-.14.31-.38.41-.47.95-.99t1.1-1q.35-.28.53-.28.17 0 .54.28 1.19 1.03 2.02 1.99.19.22.32.38.12.15.12.34 0 .19-.12.34-.13.14-.33.39-.4.46-.93.98-.52.52-1.08.99-.2.17-.32.22-.12.05-.22.05t-.21-.05q-.11-.05-.35-.22-.58-.47-1.1-.99-.51-.52-.92-1.01-.19-.23-.31-.37-.11-.14-.11-.33m5.3 19.15q0 .44-.19.6-.18.17-.62.17h-3.02q-.43 0-.62-.17-.18-.16-.18-.6v-13.45q0-.44.18-.61.19-.17.62-.17h3.02q.44 0 .62.17.19.17.19.61Z"></path><rect width="6" height="22.91" x="-3" y="-11.46" fill="none" rx="0" ry="0" transform="translate(421.28 120.03)"></rect><path d="M441.56 121.655v8.56q0 .44-.18.6-.18.17-.62.17h-3.02q-.44 0-.62-.17-.18-.16-.18-.6v-7.8q0-1.59-.68-2.33-.67-.73-1.83-.73-1.16 0-1.78.5-.62.5-.96 1.26v9.1q0 .44-.18.6-.19.17-.62.17h-3.02q-.44 0-.62-.17-.19-.16-.19-.6v-12.28q0-.35.15-.54.31-.41.74-.84.43-.42 1.06-.9.19-.15.37-.15.16 0 .36.15.62.48 1.06.92.44.44.77.91h.08q.25-.33.74-.76.5-.43 1.4-.77.9-.33 2.31-.33 1.38 0 2.62.55 1.25.56 2.05 1.88.79 1.32.79 3.6"></path><rect width="14.5" height="15.48" x="-7.25" y="-7.74" fill="none" rx="0" ry="0" transform="translate(434.81 123.75)"></rect><path d="M460.02 117.395v11.88q0 4.28-2.44 6.52-2.44 2.24-6.68 2.24-1.76 0-2.79-.26-1.02-.25-1.55-.49-.34-.16-.44-.34-.15-.23-.33-.68-.18-.46-.34-1-.05-.21-.02-.31.06-.14.22-.31.26-.26.76-.61.49-.35.75-.46.28-.1.51.03.38.21 1.09.47.71.25 2 .25 2.05 0 3.34-1.05 1.29-1.06 1.29-3.25v-.53h-.06q-.32.41-.83.83-.51.43-1.33.72-.81.29-2.08.29-2.22 0-3.63-.96-1.41-.96-2.08-2.64-.67-1.68-.67-3.84 0-2.36.78-4.23.78-1.88 2.61-2.97 1.83-1.09 5.01-1.09 1.9 0 3.2.28 1.29.28 2.17.69.88.41 1.54.82m-7.07 1.76q-1.7 0-2.6 1.14-.89 1.14-.89 3.54 0 3.77 3.11 3.77 1.21 0 1.86-.5.64-.5.96-1.26v-6.05q-.32-.23-.91-.44-.58-.2-1.53-.2"></path><rect width="15.31" height="22.43" x="-7.66" y="-11.21" fill="none" rx="0" ry="0" transform="translate(452.87 127.32)"></rect><path d="M471.52 129.745v-.34q0-1.61.53-2.91.52-1.29 1.37-2.33.84-1.03 1.81-1.83.96-.8 1.84-1.43 1.85-1.31 2.79-2.41.95-1.09.95-2.45 0-2.72-2.99-2.72-1.19 0-2.1.38-.9.38-1.46.76-.32.22-.51.19t-.4-.4l-1.24-2.18q-.27-.45.16-.75.82-.55 2.38-1.12 1.56-.58 4.06-.58 3.21 0 5.01 1.62 1.8 1.61 1.8 4.35 0 1.92-.76 3.31-.76 1.39-1.98 2.46-1.21 1.07-2.6 2.03-1.42.99-2.51 1.95-1.08.97-1.08 1.8h7.59q.35 0 .52.12.38.26.79.63.42.37.87.88.15.19.15.29 0 .13-.15.3-.45.51-.87.87-.41.37-.79.63-.2.12-.52.12H472.6q-.63 0-.85-.33-.23-.33-.23-.91"></path><rect width="14.99" height="21.36" x="-7.5" y="-10.68" fill="none" rx="0" ry="0" transform="translate(479.51 120.8)"></rect><path d="M497.08 131.355q-3.97 0-5.88-2.64-1.91-2.64-1.91-7.89 0-5.47 2.06-8.33 2.07-2.87 6.14-2.87 3.88 0 5.75 2.69 1.87 2.68 1.87 8.02 0 3.12-.79 5.62t-2.56 3.95q-1.76 1.45-4.68 1.45m.15-3.69q1.65 0 2.41-1.82.75-1.82.75-5.36 0-3.55-.74-5.35-.74-1.81-2.36-1.81-1.73 0-2.51 1.86-.77 1.87-.77 5.52 0 3.44.76 5.2.77 1.76 2.46 1.76"></path><rect width="15.82" height="21.73" x="-7.91" y="-10.87" fill="none" rx="0" ry="0" transform="translate(497.7 120.99)"></rect><path d="M507.75 129.745v-.34q0-1.61.52-2.91.53-1.29 1.37-2.33.85-1.03 1.81-1.83.97-.8 1.85-1.43 1.84-1.31 2.79-2.41.94-1.09.94-2.45 0-2.72-2.99-2.72-1.18 0-2.09.38-.91.38-1.46.76-.33.22-.52.19t-.39-.4l-1.25-2.18q-.26-.45.16-.75.82-.55 2.38-1.12 1.56-.58 4.07-.58 3.21 0 5.01 1.62 1.8 1.61 1.8 4.35 0 1.92-.76 3.31-.76 1.39-1.98 2.46t-2.61 2.03q-1.42.99-2.5 1.95-1.09.97-1.09 1.8h7.59q.35 0 .53.12.38.26.79.63.41.37.86.88.15.19.15.29 0 .13-.15.3-.45.51-.86.87-.41.37-.79.63-.21.12-.53.12h-11.57q-.63 0-.86-.33-.22-.33-.22-.91"></path><rect width="14.98" height="21.36" x="-7.49" y="-10.68" fill="none" rx="0" ry="0" transform="translate(515.74 120.8)"></rect><path d="M530.85 131.355q-2.03 0-3.15-.29-1.13-.28-1.64-.52-.4-.2-.25-.66l.79-2.53q.13-.44.36-.5.22-.06.62.15.47.23 1.25.44.79.22 1.91.22 1.83 0 2.87-.86 1.03-.86 1.03-2.23 0-3.12-4.41-3.12-1.33 0-2.99.17-.42.03-.58-.09-.16-.13-.13-.58l.64-9.51q.1-1.46 1.55-1.46h8.06q.35 0 .53.11.38.27.79.63.41.37.86.88.15.19.15.3 0 .13-.15.29-.45.51-.86.88-.41.36-.79.63-.21.11-.53.11h-4.89q-.62 0-.87.27-.25.26-.29.83l-.22 3.05q1.13-.09 1.95-.09 3.12 0 5.01 1.64 1.89 1.64 1.89 4.63 0 3.36-2.27 5.28-2.26 1.93-6.24 1.93"></path><rect width="13.64" height="21.37" x="-6.82" y="-10.69" fill="none" rx="0" ry="0" transform="translate(533.04 121.17)"></rect></svg></svg>